<?xml version="1.0" encoding="UTF-8"?>
<svg width="2044px" height="388px" viewBox="0 0 2044 388" version="1.1" xmlns="http://www.w3.org/2000/svg" xmlns:xlink="http://www.w3.org/1999/xlink">
    <!-- Generator: Sketch 49.3 (51167) - http://www.bohemiancoding.com/sketch -->
    <title>Group 5 Copy 2</title>
    <desc>Created with Sketch.</desc>
    <defs>
        <path d="M335.609267,100.199942 C287.24243,61.1298923 247.775251,99.262603 245.521932,117.799238 C233.704898,104.203582 210.581197,110.110941 207.805543,124.449655 C167.83858,99.6134702 129.222356,128.213071 128.175148,149.80286 C112.441543,128.510425 81.0184007,119.754836 54.446093,130.331788 L14.6336808,107.350355 C5.68434189e-14,99.3487057 -2.34092504e-13,86.979467 5.68434189e-14,81.1844877 L5.68434189e-14,67.3658518 C5.45167404e-14,65.0263008 5.65616748,58.5125288 7.43671739,56.9938772 C24.9577846,42.0499564 51.2315065,44.5092888 76.1785767,54.2227785 C93.18768,60.8455101 106.440244,74.061652 113.26788,90.437385 C114.772637,88.678268 116.270561,87.1846297 117.978923,85.7402313 C123.42953,81.1318108 129.748891,78.6387384 137.172453,78.6387384 C145.366767,78.6387384 152.662611,82.5724473 158.996909,89.2606136 C163.335921,71.198481 175.075786,56.6898702 191.929792,49.1868767 C213.137261,39.7458271 238.198933,43.178024 260.151058,59.0086281 C263.477991,34.9428761 274.279538,17.5362012 290.204821,7.91378083 C306.576469,-1.97834372 326.942046,-2.90218392 336.728986,6.87453468 C338.056675,8.20083713 340.559074,11.9649126 340.559074,13.7290881 L340.559074,84.1548481 C340.559074,91.2180962 338.481166,96.3977632 335.609285,100.199957 Z" id="path-1"></path>
        <path d="M74.172991,67.4032344 C75.218373,45.8138599 113.832738,17.2179824 153.802422,42.0572029 C156.576894,27.7189405 179.700438,21.8136424 191.51881,35.4101027 C193.770515,16.8744781 233.232801,-21.2526117 281.601772,17.8153401 C279.395692,20.732803 276.722217,22.8384921 274.162484,24.3614832 L129.927524,107.365451 C117.982767,113.836151 107.848528,109.931944 103.397935,107.365451 L0.432738727,47.929521 C27.0063264,37.3497891 58.4356696,46.1075265 74.172991,67.4032344 Z" id="path-3"></path>
    </defs>
    <g id="Page-1" stroke="none" stroke-width="1" fill="none" fill-rule="evenodd">
        <g id="Group-5-Copy-2" transform="translate(0.000000, -2.000000)">
            <g id="Group-2-Copy-26">
                <path d="M169.616852,14.8886161 L14.7511211,103.806986 C13.5062203,104.521764 12.7397969,105.848825 12.7428355,107.28433 L13.1086471,280.105077 C13.1192161,285.098177 15.7882659,289.707724 20.1134155,292.202568 L165.494658,376.061749 C169.815182,378.553925 175.135333,378.559237 179.460826,376.075694 L324.302775,292.912621 C328.659928,290.410899 331.342409,285.766186 331.331775,280.741917 L330.966051,107.96274 C330.963031,106.536139 330.200445,105.219126 328.964688,104.506313 L173.607186,14.8926003 C172.37275,14.1805499 170.852707,14.1790322 169.616852,14.8886161 Z" id="Shape" stroke="#617999" stroke-width="23.6000004"></path>
                <g id="Path-7" transform="translate(2.000000, 195.605442)">
                    <mask id="mask-2" fill="white">
                        <use xlink:href="#path-1"></use>
                    </mask>
                    <g id="Combined-Shape" stroke-linejoin="round" fill-rule="nonzero">
                        <use fill="#93D2FF" fill-rule="evenodd" xlink:href="#path-1"></use>
                        <path stroke="#A2D7FC" stroke-width="0.5" d="M113.34202,89.9687533 C114.767696,88.3306071 116.199065,86.9176984 117.817511,85.549322 C123.436828,80.798259 129.84398,78.3887384 137.172453,78.3887384 C145.027659,78.3887384 152.307506,81.965273 158.862216,88.7579301 C163.332046,70.7135223 175.145049,56.3853824 191.828118,48.9584858 C213.120514,39.4796289 238.129607,42.9690615 259.960904,58.5644167 C263.29927,35.0911343 273.847965,17.5048755 290.075533,7.69980727 C306.819218,-2.41711089 327.183099,-3.01475194 336.90567,6.69766565 C338.59472,8.3849515 340.809074,12.09809 340.809074,13.7290881 L340.809074,84.1548481 C340.809074,90.7241839 339.036687,96.0770787 335.808756,100.350621 L335.653088,100.556716 L335.452171,100.394418 C313.760222,82.8719674 292.182515,79.5347159 273.371822,87.6267355 C258.605517,93.9789328 247.026295,107.495526 245.770105,117.829406 L245.702231,118.387765 L245.333244,117.963241 C234.065498,104.999547 210.899685,109.781117 208.050987,124.497168 L207.981983,124.853636 L207.673591,124.661996 C189.469414,113.349595 170.123139,112.358903 153.499214,119.943961 C139.137266,126.496938 128.956714,138.849871 128.424854,149.814972 L128.390876,150.51548 L127.974084,149.951431 C112.161224,128.551738 80.7663864,120.124226 54.5385489,130.564063 L54.3211105,130.548304 L14.5137409,107.569705 C7.860284,103.931616 3.73981652,99.1753501 1.59549476,93.5286733 C0.0993894404,89.5889553 -0.25,86.3807316 -0.25,81.1844877 L-0.25,67.3658518 C-0.25,65.3155085 4.54448806,59.1321111 7.274484,56.803666 C23.3822921,43.0651301 48.004023,42.984341 76.2692844,53.9898147 C93.0437767,60.5211973 106.372285,73.5340784 113.342023,89.96876 Z"></path>
                    </g>
                </g>
                <g id="Rectangle-2" transform="translate(56.000000, 278.000000)">
                    <mask id="mask-4" fill="white">
                        <use xlink:href="#path-3"></use>
                    </mask>
                    <use id="Mask" fill="#71C3FE" xlink:href="#path-3"></use>
                </g>
                <path d="M128.437976,156.05935 L173.592282,182.804111 L324.35461,96.5360134 C329.737659,93.4949375 336.567993,95.391306 339.610586,100.771671 C342.653179,106.152036 340.755865,112.978963 335.372815,116.020039 L178.968765,205.475346 C175.478849,207.446923 171.200624,207.403084 167.751884,205.360405 L117.997392,175.890966 L115.309298,223.989948 C114.885829,230.006249 106.341561,225.434399 102.074751,221.169717 C100.785801,219.881409 98.6122713,216.797654 98.5796423,214.976003 L96.376636,163.085057 C86.6785118,157.340886 79.4049186,153.032758 74.5558565,150.160673 C72.6819523,149.050765 70.0517989,147.492933 66.6653963,145.487177 C61.3428072,142.334623 57.0319406,133.957532 60.1842594,128.640647 C63.3365783,123.323762 74.676614,124.216653 78.0750708,126.229549 C81.5068504,128.262182 84.1710324,129.840169 86.0676167,130.963511 C90.7518555,133.737972 97.7782138,137.899663 107.146691,143.448584 C107.328367,143.311714 107.518852,143.181771 107.718118,143.059434 L155.060314,117.704563 C156.573606,116.775497 159.918987,116.485071 161.660472,116.833194 C167.644972,118.029498 175.779777,122.598678 170.875654,126.229549 L128.437976,156.05935 Z" id="Combined-Shape" stroke="#617999" stroke-width="3" fill="#617999" fill-rule="nonzero" stroke-linecap="square"></path>
                <path d="M128.437976,156.05935 L173.592282,182.804111 L181.304087,178.568454 C186.687137,175.527378 193.51747,177.423746 196.560064,182.804111 C199.602657,188.184477 197.705342,195.011403 192.322292,198.052479 L178.968765,205.475346 C175.478849,207.446923 171.200624,207.403084 167.751884,205.360405 L117.997392,175.890966 L115.309298,223.989948 C114.885829,230.006249 106.341561,225.434399 102.074751,221.169717 C100.785801,219.881409 98.6122713,216.797654 98.5796423,214.976003 L96.376636,163.085057 C86.6785118,157.340886 79.4049186,153.032758 74.5558565,150.160673 C72.6819523,149.050765 70.0517989,147.492933 66.6653963,145.487177 C61.3428072,142.334623 57.0319406,133.957532 60.1842594,128.640647 C63.3365783,123.323762 74.676614,124.216653 78.0750708,126.229549 C81.5068504,128.262182 84.1710324,129.840169 86.0676167,130.963511 C90.7518555,133.737972 97.7782138,137.899663 107.146691,143.448584 C107.328367,143.311714 107.518852,143.181771 107.718118,143.059434 L155.060314,117.704563 C156.573606,116.775497 159.918987,116.485071 161.660472,116.833194 C167.644972,118.029498 175.779777,122.598678 170.875654,126.229549 L128.437976,156.05935 Z" id="Combined-Shape" fill="#617999" fill-rule="nonzero"></path>
                <path d="" id="Path-4" stroke="#979797" stroke-width="0.64"></path>
                <path d="" id="Path-5" stroke="#979797" stroke-width="0.64"></path>
            </g>
            <path d="M440,293.240034 L440,105.640001 C440,101.774008 443.134007,98.6400014 447,98.6400014 L552.80802,98.6400014 C556.674013,98.6400014 559.80802,101.774008 559.80802,105.640001 L559.80802,121.016006 C559.80802,124.881999 556.674013,128.016006 552.80802,128.016006 L473.984006,128.016006 L473.984006,184.176015 L545.896019,184.176015 C549.762012,184.176015 552.896019,187.310022 552.896019,191.176015 L552.896019,206.55202 C552.896019,210.418014 549.762012,213.55202 545.896019,213.55202 L473.984006,213.55202 L473.984006,293.240034 C473.984006,297.106028 470.849999,300.240034 466.984006,300.240034 L447,300.240034 C443.134007,300.240034 440,297.106028 440,293.240034 Z" id="Path" fill="#617999"></path>
            <path d="M663.776011,176.976014 C647.648009,176.976014 633.536006,187.920016 624.320005,204.624019 L624.320005,293.240034 C624.320005,297.106028 621.185998,300.240034 617.320005,300.240034 L598.488,300.240034 C594.622006,300.240034 591.488,297.106028 591.488,293.240034 L591.488,158.05601 C591.488,154.190017 594.622006,151.05601 598.488,151.05601 L617.320005,151.05601 C621.185998,151.05601 624.320005,154.190017 624.320005,158.05601 L624.320005,170.064013 C635.552007,156.816011 649.376009,147.600009 668.096012,147.600009 C670.177543,147.600009 672.766625,147.990433 675.863258,148.771282 L675.863258,148.771282 C679.199279,149.612494 681.429449,152.753248 681.124084,156.180115 L679.747845,171.62463 C679.40471,175.475368 676.004904,178.318842 672.154166,177.975707 C671.92771,177.955527 671.702371,177.924327 671.478951,177.882218 C668.273606,177.278082 665.705959,176.976014 663.776011,176.976014 Z" id="Path" fill="#617999"></path>
            <path d="M709.568,293.240034 L709.568,158.05601 C709.568,154.190017 712.702007,151.05601 716.568,151.05601 L735.400005,151.05601 C739.265998,151.05601 742.400005,154.190017 742.400005,158.05601 L742.400005,293.240034 C742.400005,297.106028 739.265998,300.240034 735.400005,300.240034 L716.568,300.240034 C712.702007,300.240034 709.568,297.106028 709.568,293.240034 Z" id="Path" fill="#617999"></path>
            <path d="M705.535999,110.448003 C705.535999,98.9280015 714.464001,90 725.984002,90 C737.504004,90 746.432006,98.9280015 746.432006,110.448003 C746.432006,121.968005 737.504004,130.896007 725.984002,130.896007 C714.464001,130.896007 705.535999,121.968005 705.535999,110.448003 Z" id="Path" fill="#617999"></path>
            <path d="M924.501952,236.304024 L807.632003,236.304024 C811.376004,259.056028 831.248007,275.47203 855.872011,275.47203 C869.901241,275.47203 883.16353,270.293009 895.658878,259.934967 C898.358539,257.697074 902.297509,257.802019 904.874181,260.180485 L917.12939,271.492988 C919.970134,274.115214 920.147278,278.543826 917.525053,281.38457 C917.339862,281.585194 917.143091,281.774811 916.93575,281.952449 C900.016224,296.448173 879.949645,303.696035 856.736011,303.696035 C807.200003,303.696035 774.079998,269.136029 774.079998,225.648022 C774.079998,182.160015 808.352003,147.600009 854.432011,147.600009 C899.936019,147.600009 931.904024,181.584015 931.904024,222.768022 C931.904024,225.130219 931.753897,227.582543 931.453643,230.124994 C931.037479,233.648924 928.050371,236.304024 924.501952,236.304024 Z M854.432011,175.824014 C833.696008,175.824014 815.120005,189.648016 808.928004,209.23202 L897.488018,209.23202 C892.448017,190.080016 875.888015,175.824014 854.432011,175.824014 Z" id="Combined-Shape" fill="#617999"></path>
            <path d="M994.976005,201.168018 L994.976005,293.240034 C994.976005,297.106028 991.841998,300.240034 987.976005,300.240034 L969.144,300.240034 C965.278006,300.240034 962.144,297.106028 962.144,293.240034 L962.144,158.05601 C962.144,154.190017 965.278006,151.05601 969.144,151.05601 L987.976005,151.05601 C991.841998,151.05601 994.976005,154.190017 994.976005,158.05601 L994.976005,168.336013 C1005.92001,156.240011 1022.62401,147.600009 1039.61601,147.600009 C1075.61602,147.600009 1100.38402,172.368014 1100.38402,209.80802 L1100.38402,293.240034 C1100.38402,297.106028 1097.25002,300.240034 1093.38402,300.240034 L1074.55202,300.240034 C1070.68602,300.240034 1067.55202,297.106028 1067.55202,293.240034 L1067.55202,211.53602 C1067.55202,191.376017 1053.72801,176.976014 1033.28001,176.976014 C1018.30401,176.976014 1003.04001,189.072016 994.976005,201.168018 Z" id="Path" fill="#617999"></path>
            <path d="M1204.06401,147.600009 C1223.07201,147.600009 1240.35202,153.93601 1253.60002,167.184013 L1253.60002,97 C1253.60002,93.1340068 1256.73403,90 1260.60002,90 L1279.43202,90 C1283.29802,90 1286.43202,93.1340068 1286.43202,97 L1286.43202,293.240034 C1286.43202,297.106028 1283.29802,300.240034 1279.43202,300.240034 L1260.60002,300.240034 C1256.73403,300.240034 1253.60002,297.106028 1253.60002,293.240034 L1253.60002,284.112032 C1240.35202,297.360034 1223.07201,303.696035 1204.06401,303.696035 C1159.712,303.696035 1127.744,267.984029 1127.744,225.648022 C1127.744,183.312015 1159.712,147.600009 1204.06401,147.600009 Z M1209.82401,274.32003 C1229.12001,274.32003 1245.82402,263.664028 1253.60002,247.536026 L1253.60002,204.048019 C1245.82402,187.920016 1229.12001,176.976014 1209.82401,176.976014 C1182.46401,176.976014 1161.152,198.288018 1161.152,225.648022 C1161.152,253.008027 1182.46401,274.32003 1209.82401,274.32003 Z" id="Combined-Shape" fill="#617999"></path>
            <path d="M1325.49535,265.972186 L1337.56566,252.923202 C1340.04446,250.24342 1344.16643,249.918401 1347.03459,252.176574 C1365.29681,266.554878 1380.32795,273.74403 1392.12801,273.74403 C1415.45601,273.74403 1431.58402,262.800028 1431.58402,244.944025 C1431.58402,229.680023 1422.08002,217.296021 1387.52001,210.09602 C1345.184,201.168018 1325.024,180.432015 1325.024,151.05601 C1325.024,117.648005 1352.096,95.1840008 1390.68801,95.1840008 C1411.74953,95.1840008 1431.54097,102.199598 1450.06233,116.230791 L1450.06233,116.230793 C1453.14389,118.565287 1453.74951,122.955868 1451.41502,126.037431 C1451.34962,126.123755 1451.28223,126.208549 1451.2129,126.291746 C1448.77914,129.212259 1446.82015,131.563053 1445.33592,133.344128 C1443.94607,135.011946 1442.10907,137.216347 1439.82492,139.957332 L1439.82492,139.957334 C1437.48893,142.760524 1433.39144,143.299071 1430.41044,141.194715 C1415.2447,130.488909 1402.48389,125.136006 1392.12801,125.136006 C1373.40801,125.136006 1359.584,134.352007 1359.584,148.75201 C1359.584,164.880012 1371.68001,175.248014 1401.92001,182.160015 C1449.15202,193.104017 1466.14402,213.84002 1466.14402,244.944025 C1466.14402,279.504031 1439.07202,303.696035 1393.56801,303.696035 C1369.79834,303.696035 1347.29013,294.467337 1326.04336,276.009942 L1326.04336,276.009942 C1323.12483,273.474572 1322.81422,269.053315 1325.34959,266.134787 C1325.39733,266.079832 1325.44592,266.025625 1325.49535,265.972186 Z" id="Path" fill="#617999"></path>
            <path d="M1530.656,201.168018 L1530.656,293.240034 C1530.656,297.106028 1527.522,300.240034 1523.656,300.240034 L1504.824,300.240034 C1500.95801,300.240034 1497.824,297.106028 1497.824,293.240034 L1497.824,97 C1497.824,93.1340068 1500.95801,90 1504.824,90 L1523.656,90 C1527.522,90 1530.656,93.1340068 1530.656,97 L1530.656,168.336013 C1541.60001,156.240011 1558.30401,147.600009 1575.29601,147.600009 C1611.29602,147.600009 1636.06402,172.368014 1636.06402,209.80802 L1636.06402,293.240034 C1636.06402,297.106028 1632.93002,300.240034 1629.06402,300.240034 L1610.23202,300.240034 C1606.36602,300.240034 1603.23202,297.106028 1603.23202,293.240034 L1603.23202,211.53602 C1603.23202,191.376017 1589.40801,176.976014 1568.96001,176.976014 C1553.98401,176.976014 1538.72001,189.072016 1530.656,201.168018 Z" id="Path" fill="#617999"></path>
            <path d="M1674.944,293.240034 L1674.944,158.05601 C1674.944,154.190017 1678.07801,151.05601 1681.944,151.05601 L1700.77601,151.05601 C1704.642,151.05601 1707.77601,154.190017 1707.77601,158.05601 L1707.77601,293.240034 C1707.77601,297.106028 1704.642,300.240034 1700.77601,300.240034 L1681.944,300.240034 C1678.07801,300.240034 1674.944,297.106028 1674.944,293.240034 Z" id="Path" fill="#617999"></path>
            <path d="M1670.912,110.448003 C1670.912,98.9280015 1679.84,90 1691.36,90 C1702.88,90 1711.80801,98.9280015 1711.80801,110.448003 C1711.80801,121.968005 1702.88,130.896007 1691.36,130.896007 C1679.84,130.896007 1670.912,121.968005 1670.912,110.448003 Z" id="Path" fill="#617999"></path>
            <path d="M1831.90401,147.600009 C1876.25602,147.600009 1908.22403,183.312015 1908.22403,225.648022 C1908.22403,267.984029 1876.25602,303.696035 1831.90401,303.696035 C1812.89601,303.696035 1795.61601,297.360034 1782.368,284.112032 L1782.368,360.056045 C1782.368,363.922039 1779.234,367.056045 1775.368,367.056045 L1756.536,367.056045 C1752.67001,367.056045 1749.536,363.922039 1749.536,360.056045 L1749.536,158.05601 C1749.536,154.190017 1752.67001,151.05601 1756.536,151.05601 L1775.368,151.05601 C1779.234,151.05601 1782.368,154.190017 1782.368,158.05601 L1782.368,167.184013 C1795.61601,153.93601 1812.89601,147.600009 1831.90401,147.600009 Z M1826.14401,274.32003 C1853.50402,274.32003 1874.81602,253.008027 1874.81602,225.648022 C1874.81602,198.288018 1853.50402,176.976014 1826.14401,176.976014 C1806.84801,176.976014 1790.14401,187.920016 1782.368,204.048019 L1782.368,247.536026 C1790.14401,263.664028 1806.84801,274.32003 1826.14401,274.32003 Z" id="Combined-Shape" fill="#617999"></path>
            <path d="M1933.35728,273.022256 L1942.50527,262.159026 C1944.88063,259.338286 1949.03697,258.844115 1952.00751,261.02925 C1965.0968,270.65777 1976.2303,275.47203 1985.40801,275.47203 C2001.24801,275.47203 2011.04001,268.560029 2011.04001,257.616027 C2011.04001,247.248026 2004.12801,240.912025 1982.52801,236.592024 C1949.12,229.968023 1933.856,214.41602 1933.856,189.648016 C1933.856,165.456012 1954.016,147.600009 1986.27201,147.600009 C1998.56226,147.600009 2013.5083,152.911584 2031.11012,163.534732 L2031.11012,163.534733 C2034.42002,165.532343 2035.48385,169.834932 2033.48624,173.144834 C2033.33311,173.398556 2033.16402,173.642297 2032.98,173.874586 L2024.32312,184.80212 C2022.07161,187.644193 2018.02254,188.296584 2014.99231,186.305512 C2004.3577,179.317847 1995.64827,175.824014 1988.86401,175.824014 C1976.19201,175.824014 1966.688,181.296015 1966.688,190.224016 C1966.688,199.440018 1974.75201,206.928019 1993.18401,210.67202 C2028.32001,217.872021 2043.87202,232.848023 2043.87202,258.192028 C2043.87202,284.112032 2023.13601,303.696035 1987.71201,303.696035 C1972.92657,303.696035 1955.30451,296.919659 1934.84583,283.366906 L1934.84583,283.366909 C1931.62286,281.231869 1930.74092,276.888345 1932.87596,273.665377 C1933.02396,273.441967 1933.18466,273.22724 1933.35728,273.022256 Z" id="Path" fill="#617999"></path>
        </g>
    </g>
</svg>