<?xml version="1.0" encoding="UTF-8"?>
<svg width="2043px" height="386px" viewBox="0 0 2043 386" version="1.1" xmlns="http://www.w3.org/2000/svg" xmlns:xlink="http://www.w3.org/1999/xlink">
    <!-- Generator: Sketch 49.3 (51167) - http://www.bohemiancoding.com/sketch -->
    <title>Group 5</title>
    <desc>Created with Sketch.</desc>
    <defs>
        <linearGradient x1="50%" y1="0%" x2="64.7751797%" y2="138.784787%" id="linearGradient-1">
            <stop stop-color="#FFFFFF" offset="0%"></stop>
            <stop stop-color="#FFFFFF" offset="44.1539344%"></stop>
            <stop stop-color="#FFFFFF" stop-opacity="0" offset="100%"></stop>
        </linearGradient>
        <linearGradient x1="50%" y1="463.220464%" x2="50%" y2="32.3186487%" id="linearGradient-2">
            <stop stop-color="#9EAAB9" offset="0%"></stop>
            <stop stop-color="#FFFFFF" offset="100%"></stop>
        </linearGradient>
        <path d="M335.609267,100.199942 C287.24243,61.1298923 247.775251,99.262603 245.521932,117.799238 C233.704898,104.203582 210.581197,110.110941 207.805543,124.449655 C167.83858,99.6134702 129.222356,128.213071 128.175148,149.80286 C112.441543,128.510425 81.0184007,119.754836 54.446093,130.331788 L14.6336808,107.350355 C5.68434189e-14,99.3487057 -2.34092504e-13,86.979467 5.68434189e-14,81.1844877 L5.68434189e-14,67.3658518 C5.45167404e-14,65.0263008 5.65616748,58.5125288 7.43671739,56.9938772 C24.9577846,42.0499564 51.2315065,44.5092888 76.1785767,54.2227785 C93.18768,60.8455101 106.440244,74.061652 113.26788,90.437385 C114.772637,88.678268 116.270561,87.1846297 117.978923,85.7402313 C123.42953,81.1318108 129.748891,78.6387384 137.172453,78.6387384 C145.366767,78.6387384 152.662611,82.5724473 158.996909,89.2606136 C163.335921,71.198481 175.075786,56.6898702 191.929792,49.1868767 C213.137261,39.7458271 238.198933,43.178024 260.151058,59.0086281 C263.477991,34.9428761 274.279538,17.5362012 290.204821,7.91378083 C306.576469,-1.97834372 326.942046,-2.90218392 336.728986,6.87453468 C338.056675,8.20083713 340.559074,11.9649126 340.559074,13.7290881 L340.559074,84.1548481 C340.559074,91.2180962 338.481166,96.3977632 335.609285,100.199957 Z" id="path-3"></path>
        <linearGradient x1="-24.9695927%" y1="233.521089%" x2="48.9381454%" y2="-54.557045%" id="linearGradient-5">
            <stop stop-color="#FFFFFF" stop-opacity="0" offset="0%"></stop>
            <stop stop-color="#FAFAFB" offset="100%"></stop>
        </linearGradient>
        <linearGradient x1="36.5462704%" y1="-12.8939518%" x2="54.4015467%" y2="257.219141%" id="linearGradient-6">
            <stop stop-color="#FFFFFF" offset="0%"></stop>
            <stop stop-color="#FFFFFF" offset="46.8072616%"></stop>
            <stop stop-color="#FFFFFF" stop-opacity="0" offset="100%"></stop>
        </linearGradient>
    </defs>
    <g id="Page-1" stroke="none" stroke-width="1" fill="none" fill-rule="evenodd">
        <g id="Group-5" transform="translate(1.000000, 11.000000)">
            <g id="Group-2-Copy-26">
                <path d="M13.2283432,259.523692 L12.9391591,97.8394783 C12.9294461,93.2507568 15.3800919,89.0085328 19.3610219,86.7228251 L163.791761,3.79585444 C167.746326,1.52528425 172.611101,1.53014034 176.561121,3.80860099 L321.436518,87.3759992 C325.388207,89.6554224 327.82658,93.865534 327.836232,98.4257914 L328.015786,183.252345 L328.015791,208.771231" id="Combined-Shape" stroke="url(#linearGradient-1)" stroke-width="25.6"></path>
                <g id="Path-7" transform="translate(0.000000, 181.605442)">
                    <mask id="mask-4" fill="white">
                        <use xlink:href="#path-3"></use>
                    </mask>
                    <g id="Combined-Shape" stroke-linejoin="round" fill-rule="nonzero">
                        <use fill="url(#linearGradient-2)" fill-rule="evenodd" xlink:href="#path-3"></use>
                        <path stroke="#F9FAFB" stroke-width="0.5" d="M113.34202,89.9687533 C114.767696,88.3306071 116.199065,86.9176984 117.817511,85.549322 C123.436828,80.798259 129.84398,78.3887384 137.172453,78.3887384 C145.027659,78.3887384 152.307506,81.965273 158.862216,88.7579301 C163.332046,70.7135223 175.145049,56.3853824 191.828118,48.9584858 C213.120514,39.4796289 238.129607,42.9690615 259.960904,58.5644167 C263.29927,35.0911343 273.847965,17.5048755 290.075533,7.69980727 C306.819218,-2.41711089 327.183099,-3.01475194 336.90567,6.69766565 C338.59472,8.3849515 340.809074,12.09809 340.809074,13.7290881 L340.809074,84.1548481 C340.809074,90.7241839 339.036687,96.0770787 335.808756,100.350621 L335.653088,100.556716 L335.452171,100.394418 C313.760222,82.8719674 292.182515,79.5347159 273.371822,87.6267355 C258.605517,93.9789328 247.026295,107.495526 245.770105,117.829406 L245.702231,118.387765 L245.333244,117.963241 C234.065498,104.999547 210.899685,109.781117 208.050987,124.497168 L207.981983,124.853636 L207.673591,124.661996 C189.469414,113.349595 170.123139,112.358903 153.499214,119.943961 C139.137266,126.496938 128.956714,138.849871 128.424854,149.814972 L128.390876,150.51548 L127.974084,149.951431 C112.161224,128.551738 80.7663864,120.124226 54.5385489,130.564063 L54.3211105,130.548304 L14.5137409,107.569705 C7.860284,103.931616 3.73981652,99.1753501 1.59549476,93.5286733 C0.0993894404,89.5889553 -0.25,86.3807316 -0.25,81.1844877 L-0.25,67.3658518 C-0.25,65.3155085 4.54448806,59.1321111 7.274484,56.803666 C23.3822921,43.0651301 48.004023,42.984341 76.2692844,53.9898147 C93.0437767,60.5211973 106.372285,73.5340784 113.342023,89.96876 Z"></path>
                    </g>
                    <path d="M128.172991,149.797792 C129.218373,128.208418 167.832738,99.6125402 207.802422,124.451761 C210.576894,110.113498 233.700438,104.2082 245.51881,117.804661 C247.770515,99.2690359 287.232801,61.1419461 335.601772,100.209898 C333.395692,103.127361 330.722217,105.23305 328.162484,106.756041 L183.927524,189.760009 C171.982767,196.230709 161.848528,192.326502 157.397935,189.760009 L54.4327387,130.324079 C81.0063264,119.744347 112.43567,128.502084 128.172991,149.797792 Z" id="Combined-Shape" fill="url(#linearGradient-5)"></path>
                </g>
                <path d="M126.437976,142.05935 L171.592282,168.804111 L318.984706,85.5368988 C324.367756,82.4958229 331.198089,84.3921915 334.240682,89.7725565 C337.283276,95.1529216 335.385961,101.979848 330.002911,105.020924 L176.968765,191.475346 C173.478849,193.446923 169.200624,193.403084 165.751884,191.360405 L115.997392,161.890966 L113.309298,209.989948 C112.885829,216.006249 104.341561,211.434399 100.074751,207.169717 C98.7858006,205.881409 96.6122713,202.797654 96.5796423,200.976003 L94.376636,149.085057 C84.6785118,143.340886 77.4049186,139.032758 72.5558565,136.160673 C70.6819523,135.050765 68.0517989,133.492933 64.6653963,131.487177 C59.3428072,128.334623 55.0319406,119.957532 58.1842594,114.640647 C61.3365783,109.323762 72.676614,110.216653 76.0750708,112.229549 C79.5068504,114.262182 82.1710324,115.840169 84.0676167,116.963511 C88.7518555,119.737972 95.7782138,123.899663 105.146691,129.448584 C105.328367,129.311714 105.518852,129.181771 105.718118,129.059434 L153.060314,103.704563 C154.573606,102.775497 157.918987,102.485071 159.660472,102.833194 C165.644972,104.029498 173.779777,108.598678 168.875654,112.229549 L126.437976,142.05935 Z" id="Combined-Shape" stroke="#FFFFFF" stroke-width="3" fill="url(#linearGradient-6)" fill-rule="nonzero" stroke-linecap="square"></path>
                <path d="" id="Path-4" stroke="#979797" stroke-width="0.64"></path>
                <path d="" id="Path-5" stroke="#979797" stroke-width="0.64"></path>
            </g>
            <path d="M438,279.240034 L438,91.6400014 C438,87.7740082 441.134007,84.6400014 445,84.6400014 L550.80802,84.6400014 C554.674013,84.6400014 557.80802,87.7740082 557.80802,91.6400014 L557.80802,107.016006 C557.80802,110.881999 554.674013,114.016006 550.80802,114.016006 L471.984006,114.016006 L471.984006,170.176015 L543.896019,170.176015 C547.762012,170.176015 550.896019,173.310022 550.896019,177.176015 L550.896019,192.55202 C550.896019,196.418014 547.762012,199.55202 543.896019,199.55202 L471.984006,199.55202 L471.984006,279.240034 C471.984006,283.106028 468.849999,286.240034 464.984006,286.240034 L445,286.240034 C441.134007,286.240034 438,283.106028 438,279.240034 Z M661.776011,162.976014 C645.648009,162.976014 631.536006,173.920016 622.320005,190.624019 L622.320005,279.240034 C622.320005,283.106028 619.185998,286.240034 615.320005,286.240034 L596.488,286.240034 C592.622006,286.240034 589.488,283.106028 589.488,279.240034 L589.488,144.05601 C589.488,140.190017 592.622006,137.05601 596.488,137.05601 L615.320005,137.05601 C619.185998,137.05601 622.320005,140.190017 622.320005,144.05601 L622.320005,156.064013 C633.552007,142.816011 647.376009,133.600009 666.096012,133.600009 C668.177543,133.600009 670.766625,133.990433 673.863258,134.771282 L673.863258,134.771282 C677.199279,135.612494 679.429449,138.753248 679.124084,142.180115 L677.747845,157.62463 C677.40471,161.475368 674.004904,164.318842 670.154166,163.975707 C669.92771,163.955527 669.702371,163.924327 669.478951,163.882218 C666.273606,163.278082 663.705959,162.976014 661.776011,162.976014 Z M707.568,279.240034 L707.568,144.05601 C707.568,140.190017 710.702007,137.05601 714.568,137.05601 L733.400005,137.05601 C737.265998,137.05601 740.400005,140.190017 740.400005,144.05601 L740.400005,279.240034 C740.400005,283.106028 737.265998,286.240034 733.400005,286.240034 L714.568,286.240034 C710.702007,286.240034 707.568,283.106028 707.568,279.240034 Z M703.535999,96.4480034 C703.535999,84.9280015 712.464001,76 723.984002,76 C735.504004,76 744.432006,84.9280015 744.432006,96.4480034 C744.432006,107.968005 735.504004,116.896007 723.984002,116.896007 C712.464001,116.896007 703.535999,107.968005 703.535999,96.4480034 Z M922.501952,222.304024 L805.632003,222.304024 C809.376004,245.056028 829.248007,261.47203 853.872011,261.47203 C867.901241,261.47203 881.16353,256.293009 893.658878,245.934967 L893.658876,245.934965 C896.358539,243.697074 900.297509,243.802019 902.874181,246.180485 L915.12939,257.492988 C917.970134,260.115214 918.147278,264.543826 915.525053,267.38457 C915.339862,267.585194 915.143091,267.774811 914.93575,267.952449 C898.016224,282.448173 877.949645,289.696035 854.736011,289.696035 C805.200003,289.696035 772.079998,255.136029 772.079998,211.648022 C772.079998,168.160015 806.352003,133.600009 852.432011,133.600009 C897.936019,133.600009 929.904024,167.584015 929.904024,208.768022 C929.904024,211.130219 929.753897,213.582543 929.453643,216.124994 L929.453642,216.124994 C929.037479,219.648924 926.050371,222.304024 922.501952,222.304024 Z M852.432011,161.824014 C831.696008,161.824014 813.120005,175.648016 806.928004,195.23202 L895.488018,195.23202 C890.448017,176.080016 873.888015,161.824014 852.432011,161.824014 Z M992.976005,187.168018 L992.976005,279.240034 C992.976005,283.106028 989.841998,286.240034 985.976005,286.240034 L967.144,286.240034 C963.278006,286.240034 960.144,283.106028 960.144,279.240034 L960.144,144.05601 C960.144,140.190017 963.278006,137.05601 967.144,137.05601 L985.976005,137.05601 C989.841998,137.05601 992.976005,140.190017 992.976005,144.05601 L992.976005,154.336013 C1003.92001,142.240011 1020.62401,133.600009 1037.61601,133.600009 C1073.61602,133.600009 1098.38402,158.368014 1098.38402,195.80802 L1098.38402,279.240034 C1098.38402,283.106028 1095.25002,286.240034 1091.38402,286.240034 L1072.55202,286.240034 C1068.68602,286.240034 1065.55202,283.106028 1065.55202,279.240034 L1065.55202,197.53602 C1065.55202,177.376017 1051.72801,162.976014 1031.28001,162.976014 C1016.30401,162.976014 1001.04001,175.072016 992.976005,187.168018 Z M1207.82401,260.32003 C1227.12001,260.32003 1243.82402,249.664028 1251.60002,233.536026 L1251.60002,190.048019 C1243.82402,173.920016 1227.12001,162.976014 1207.82401,162.976014 C1180.46401,162.976014 1159.152,184.288018 1159.152,211.648022 C1159.152,239.008027 1180.46401,260.32003 1207.82401,260.32003 Z M1202.06401,133.600009 C1221.07201,133.600009 1238.35202,139.93601 1251.60002,153.184013 L1251.60002,83 C1251.60002,79.1340068 1254.73403,76 1258.60002,76 L1277.43202,76 C1281.29802,76 1284.43202,79.1340068 1284.43202,83 L1284.43202,279.240034 C1284.43202,283.106028 1281.29802,286.240034 1277.43202,286.240034 L1258.60002,286.240034 C1254.73403,286.240034 1251.60002,283.106028 1251.60002,279.240034 L1251.60002,270.112032 C1238.35202,283.360034 1221.07201,289.696035 1202.06401,289.696035 C1157.712,289.696035 1125.744,253.984029 1125.744,211.648022 C1125.744,169.312015 1157.712,133.600009 1202.06401,133.600009 Z M1323.49535,251.972186 L1335.56566,238.923202 C1338.04446,236.24342 1342.16643,235.918401 1345.03459,238.176574 C1363.29681,252.554878 1378.32795,259.74403 1390.12801,259.74403 C1413.45601,259.74403 1429.58402,248.800028 1429.58402,230.944025 C1429.58402,215.680023 1420.08002,203.296021 1385.52001,196.09602 C1343.184,187.168018 1323.024,166.432015 1323.024,137.05601 C1323.024,103.648005 1350.096,81.1840008 1388.68801,81.1840008 C1409.74953,81.1840008 1429.54097,88.1995975 1448.06233,102.230791 L1448.06233,102.230793 C1451.14389,104.565287 1451.74951,108.955868 1449.41502,112.037431 C1449.34962,112.123755 1449.28223,112.208549 1449.2129,112.291746 C1446.77914,115.212259 1444.82015,117.563053 1443.33592,119.344128 C1441.94607,121.011946 1440.10907,123.216347 1437.82492,125.957332 L1437.82492,125.957334 C1435.48893,128.760524 1431.39144,129.299071 1428.41044,127.194715 C1413.2447,116.488909 1400.48389,111.136006 1390.12801,111.136006 C1371.40801,111.136006 1357.584,120.352007 1357.584,134.75201 C1357.584,150.880012 1369.68001,161.248014 1399.92001,168.160015 C1447.15202,179.104017 1464.14402,199.84002 1464.14402,230.944025 C1464.14402,265.504031 1437.07202,289.696035 1391.56801,289.696035 C1367.79834,289.696035 1345.29013,280.467337 1324.04336,262.009942 L1324.04336,262.009942 C1321.12483,259.474572 1320.81422,255.053315 1323.34959,252.134787 C1323.39733,252.079832 1323.44592,252.025625 1323.49535,251.972186 Z M1528.656,187.168018 L1528.656,279.240034 C1528.656,283.106028 1525.522,286.240034 1521.656,286.240034 L1502.824,286.240034 C1498.95801,286.240034 1495.824,283.106028 1495.824,279.240034 L1495.824,83 C1495.824,79.1340068 1498.95801,76 1502.824,76 L1521.656,76 C1525.522,76 1528.656,79.1340068 1528.656,83 L1528.656,154.336013 C1539.60001,142.240011 1556.30401,133.600009 1573.29601,133.600009 C1609.29602,133.600009 1634.06402,158.368014 1634.06402,195.80802 L1634.06402,279.240034 C1634.06402,283.106028 1630.93002,286.240034 1627.06402,286.240034 L1608.23202,286.240034 C1604.36602,286.240034 1601.23202,283.106028 1601.23202,279.240034 L1601.23202,197.53602 C1601.23202,177.376017 1587.40801,162.976014 1566.96001,162.976014 C1551.98401,162.976014 1536.72001,175.072016 1528.656,187.168018 Z M1672.944,279.240034 L1672.944,144.05601 C1672.944,140.190017 1676.07801,137.05601 1679.944,137.05601 L1698.77601,137.05601 C1702.642,137.05601 1705.77601,140.190017 1705.77601,144.05601 L1705.77601,279.240034 C1705.77601,283.106028 1702.642,286.240034 1698.77601,286.240034 L1679.944,286.240034 C1676.07801,286.240034 1672.944,283.106028 1672.944,279.240034 Z M1668.912,96.4480034 C1668.912,84.9280015 1677.84,76 1689.36,76 C1700.88,76 1709.80801,84.9280015 1709.80801,96.4480034 C1709.80801,107.968005 1700.88,116.896007 1689.36,116.896007 C1677.84,116.896007 1668.912,107.968005 1668.912,96.4480034 Z M1824.14401,260.32003 C1851.50402,260.32003 1872.81602,239.008027 1872.81602,211.648022 C1872.81602,184.288018 1851.50402,162.976014 1824.14401,162.976014 C1804.84801,162.976014 1788.14401,173.920016 1780.368,190.048019 L1780.368,233.536026 C1788.14401,249.664028 1804.84801,260.32003 1824.14401,260.32003 Z M1829.90401,133.600009 C1874.25602,133.600009 1906.22403,169.312015 1906.22403,211.648022 C1906.22403,253.984029 1874.25602,289.696035 1829.90401,289.696035 C1810.89601,289.696035 1793.61601,283.360034 1780.368,270.112032 L1780.368,346.056045 C1780.368,349.922039 1777.234,353.056045 1773.368,353.056045 L1754.536,353.056045 C1750.67001,353.056045 1747.536,349.922039 1747.536,346.056045 L1747.536,144.05601 C1747.536,140.190017 1750.67001,137.05601 1754.536,137.05601 L1773.368,137.05601 C1777.234,137.05601 1780.368,140.190017 1780.368,144.05601 L1780.368,153.184013 C1793.61601,139.93601 1810.89601,133.600009 1829.90401,133.600009 Z M1931.35728,259.022256 L1940.50527,248.159026 C1942.88063,245.338286 1947.03697,244.844115 1950.00751,247.02925 C1963.0968,256.65777 1974.2303,261.47203 1983.40801,261.47203 C1999.24801,261.47203 2009.04001,254.560029 2009.04001,243.616027 C2009.04001,233.248026 2002.12801,226.912025 1980.52801,222.592024 C1947.12,215.968023 1931.856,200.41602 1931.856,175.648016 C1931.856,151.456012 1952.016,133.600009 1984.27201,133.600009 C1996.56226,133.600009 2011.5083,138.911584 2029.11012,149.534732 L2029.11012,149.534733 C2032.42002,151.532343 2033.48385,155.834932 2031.48624,159.144834 C2031.33311,159.398556 2031.16402,159.642297 2030.98,159.874586 L2022.32312,170.80212 C2020.07161,173.644193 2016.02254,174.296584 2012.99231,172.305512 C2002.3577,165.317847 1993.64827,161.824014 1986.86401,161.824014 C1974.19201,161.824014 1964.688,167.296015 1964.688,176.224016 C1964.688,185.440018 1972.75201,192.928019 1991.18401,196.67202 C2026.32001,203.872021 2041.87202,218.848023 2041.87202,244.192028 C2041.87202,270.112032 2021.13601,289.696035 1985.71201,289.696035 C1970.92657,289.696035 1953.30451,282.919659 1932.84583,269.366906 L1932.84583,269.366909 C1929.62286,267.231869 1928.74092,262.888345 1930.87596,259.665377 C1931.02396,259.441967 1931.18466,259.22724 1931.35728,259.022256 Z" id="FriendShips-Copy-10" fill="#FFFFFF"></path>
        </g>
    </g>
</svg>