<?xml version="1.0" encoding="UTF-8"?>
<svg width="512px" height="510px" viewBox="0 0 512 510" version="1.1" xmlns="http://www.w3.org/2000/svg" xmlns:xlink="http://www.w3.org/1999/xlink">
    <!-- Generator: Sketch 49.3 (51167) - http://www.bohemiancoding.com/sketch -->
    <title>cart</title>
    <desc>Created with Sketch.</desc>
    <defs></defs>
    <g id="Page-1" stroke="none" stroke-width="1" fill="none" fill-rule="evenodd">
        <g id="cart" fill-rule="nonzero">
            <path d="M254.592,496.884 C120.386,496.893 11.587,388.094 11.578,253.887 C11.569,119.681 120.368,10.882 254.574,10.873 C388.78,10.864 497.579,119.663 497.588,253.87 C497.588,253.879 497.588,253.879 497.588,253.887 C497.432,388.024 388.729,496.728 254.592,496.884 Z" id="Shape" fill="#F6F7F8"></path>
            <g id="Group">
                <circle id="Oval" fill="#E5E9EE" cx="254.592" cy="253.879" r="183.664"></circle>
                <path d="M2.555,15.098 L0,15.098 L0,11.143 L2.555,11.143 C6.91,11.134 10.43,7.614 10.43,3.259 L10.43,0.704 L14.359,0.704 L14.359,3.259 C14.351,9.778 9.075,15.072 2.555,15.098 Z" id="Shape" fill="#EEEEEE"></path>
                <path d="M24.79,15.098 L22.26,15.098 C15.724,15.089 10.439,9.796 10.43,3.259 L10.43,0.704 L14.359,0.704 L14.359,3.259 C14.368,7.605 17.888,11.134 22.234,11.143 L24.789,11.143 L24.789,15.098 L24.79,15.098 Z" id="Shape" fill="#EEEEEE"></path>
                <path d="M14.359,25.528 L10.43,25.528 L10.43,22.973 C10.43,18.627 6.901,15.098 2.555,15.098 L0,15.098 L0,11.143 L2.555,11.143 C9.074,11.16 14.35,16.454 14.359,22.973 C14.359,22.973 14.359,25.528 14.359,25.528 Z" id="Shape" fill="#EEEEEE"></path>
                <path d="M14.359,25.528 L10.43,25.528 L10.43,22.973 C10.439,16.445 15.732,11.152 22.26,11.143 L24.789,11.143 L24.789,15.098 L22.26,15.098 C17.914,15.107 14.394,18.627 14.385,22.973 L14.359,25.528 Z" id="Shape" fill="#EEEEEE"></path>
            </g>
            <g id="Group" transform="translate(98.000000, 425.000000)" fill="#75B0F4">
                <path d="M412.001,73.857 L409.446,73.857 C402.918,73.848 397.625,68.555 397.616,62.027 L397.616,59.472 L401.571,59.472 L401.571,62.027 C401.571,66.373 405.1,69.902 409.446,69.902 L412.001,69.902 L412.001,73.857 Z" id="Shape"></path>
                <path d="M401.57,84.296 L397.615,84.296 L397.615,81.741 C397.624,75.205 402.908,69.911 409.445,69.902 L412,69.902 L412,73.857 L409.445,73.857 C405.09,73.866 401.57,77.386 401.57,81.741 L401.57,84.296 Z" id="Shape"></path>
                <path d="M389.74,73.857 L387.132,73.857 L387.132,69.902 L389.74,69.902 C394.086,69.893 397.606,66.373 397.615,62.027 L397.615,59.472 L401.57,59.472 L401.57,62.027 C401.562,68.555 396.268,73.848 389.74,73.857 Z" id="Shape"></path>
                <path d="M401.57,84.296 L397.615,84.296 L397.615,81.741 C397.606,77.395 394.086,73.866 389.74,73.857 L387.132,73.857 L387.132,69.902 L389.74,69.902 C396.276,69.911 401.561,75.204 401.57,81.741 L401.57,84.296 Z" id="Shape"></path>
                <path d="M2.837,14.985 L0.282,14.985 L0.282,11.021 L2.837,11.021 C7.183,11.021 10.712,7.492 10.712,3.146 L10.712,0.591 L14.676,0.591 L14.676,3.146 C14.667,9.683 9.374,14.977 2.837,14.985 Z" id="Shape"></path>
                <path d="M25.106,14.985 L22.551,14.985 C16.015,14.976 10.721,9.683 10.712,3.146 L10.712,0.591 L14.676,0.591 L14.676,3.146 C14.676,7.492 18.205,11.021 22.551,11.021 L25.106,11.021 L25.106,14.985 Z" id="Shape"></path>
                <path d="M14.676,25.416 L10.712,25.416 L10.712,22.861 C10.712,18.515 7.183,14.986 2.837,14.986 L0.282,14.986 L0.282,11.022 L2.837,11.022 C9.373,11.031 14.667,16.324 14.676,22.861 C14.676,22.86 14.676,25.416 14.676,25.416 Z" id="Shape"></path>
                <path d="M14.676,25.416 L10.712,25.416 L10.712,22.861 C10.721,16.325 16.014,11.031 22.551,11.022 L25.106,11.022 L25.106,14.986 L22.551,14.986 C18.205,14.986 14.676,18.515 14.676,22.861 C14.676,22.86 14.676,25.416 14.676,25.416 Z" id="Shape"></path>
            </g>
            <g id="Group" transform="translate(405.000000, 188.000000)" fill="#FF60A1">
                <path d="M24.043,186.612 L21.435,186.612 L21.435,182.657 L24.043,182.657 C28.389,182.648 31.909,179.119 31.918,174.773 L31.918,172.218 L35.873,172.218 L35.873,174.782 C35.864,181.31 30.57,186.603 24.043,186.612 Z" id="Shape"></path>
                <path d="M46.312,186.612 L43.704,186.612 C37.194,186.577 31.926,181.292 31.918,174.782 L31.918,172.227 L35.873,172.227 L35.873,174.782 C35.882,179.128 39.402,182.657 43.748,182.666 L46.356,182.666 L46.312,186.612 Z" id="Shape"></path>
                <path d="M35.872,197.043 L31.917,197.043 L31.917,194.488 C31.908,190.142 28.388,186.622 24.042,186.613 L21.434,186.613 L21.434,182.658 L24.042,182.658 C30.57,182.667 35.863,187.96 35.872,194.488 L35.872,197.043 Z" id="Shape"></path>
                <path d="M35.872,197.043 L31.917,197.043 L31.917,194.488 C31.926,187.96 37.219,182.667 43.747,182.658 L46.355,182.658 L46.355,186.613 L43.747,186.613 C39.401,186.622 35.881,190.142 35.872,194.488 L35.872,197.043 Z" id="Shape"></path>
                <path d="M9.362,18.063 C4.477,18.063 0.513,14.099 0.513,9.214 C0.513,4.329 4.477,0.365 9.362,0.365 C14.247,0.365 18.211,4.329 18.211,9.214 C18.201,14.1 14.247,18.055 9.362,18.063 Z M9.362,4.321 C6.659,4.312 4.468,6.503 4.46,9.206 C4.451,11.909 6.642,14.1 9.345,14.108 C12.048,14.117 14.239,11.926 14.247,9.223 L14.247,9.214 C14.247,6.512 12.065,4.33 9.362,4.321 Z" id="Shape"></path>
            </g>
            <path d="M272.915,422.158 C266.013,422.158 260.416,416.56 260.416,409.659 C260.416,402.758 266.014,397.16 272.915,397.16 C279.817,397.16 285.414,402.758 285.414,409.659 C285.405,416.56 279.816,422.149 272.915,422.158 Z M272.915,401.123 C268.195,401.123 264.371,404.948 264.371,409.667 C264.371,414.386 268.196,418.211 272.915,418.211 C277.635,418.211 281.459,414.387 281.459,409.667 L281.459,409.658 C281.451,404.948 277.626,401.132 272.915,401.123 Z" id="Shape" fill="#75B0F4"></path>
            <g id="Group" transform="translate(21.000000, 21.000000)" fill="#FF60A1">
                <path d="M70.563,288.96 C65.669,288.969 61.706,285.005 61.697,280.111 C61.688,275.217 65.652,271.254 70.546,271.245 C75.44,271.236 79.403,275.2 79.412,280.094 C79.412,280.103 79.412,280.103 79.412,280.111 C79.403,284.997 75.448,288.951 70.563,288.96 Z M70.563,275.209 C67.86,275.209 65.669,277.399 65.669,280.103 C65.669,282.807 67.859,284.997 70.563,284.997 C73.266,284.997 75.448,282.815 75.457,280.112 C75.456,277.408 73.266,275.218 70.563,275.209 Z" id="Shape"></path>
                <path d="M226.716,18.253 C221.831,18.253 217.867,14.289 217.867,9.404 C217.867,4.519 221.831,0.555 226.716,0.555 C231.601,0.555 235.565,4.519 235.565,9.404 C235.556,14.29 231.601,18.244 226.716,18.253 Z M226.716,4.52 C224.013,4.52 221.822,6.71 221.822,9.414 C221.822,12.118 224.012,14.308 226.716,14.308 C229.419,14.308 231.61,12.118 231.61,9.414 L231.61,9.405 C231.601,6.71 229.411,4.528 226.716,4.52 Z" id="Shape"></path>
                <path d="M47.416,187.454 C44.869,187.463 42.453,186.315 40.845,184.334 C39.133,182.396 36.177,182.213 34.248,183.917 C34.1,184.047 33.961,184.186 33.831,184.334 C30.641,187.967 25.122,188.324 21.488,185.134 C21.201,184.882 20.932,184.612 20.688,184.334 C18.984,182.396 16.038,182.213 14.099,183.917 C13.951,184.047 13.812,184.186 13.682,184.334 C10.492,187.967 4.973,188.324 1.339,185.134 C1.052,184.882 0.783,184.612 0.539,184.334 L3.599,181.848 C5.311,183.786 8.267,183.969 10.196,182.265 C10.344,182.135 10.483,181.996 10.613,181.848 C13.751,178.215 19.236,177.806 22.869,180.935 C23.191,181.213 23.495,181.517 23.782,181.848 C25.512,183.769 28.467,183.925 30.388,182.196 C30.51,182.083 30.631,181.97 30.736,181.848 C33.926,178.215 39.445,177.858 43.079,181.048 C43.366,181.3 43.635,181.57 43.879,181.848 C45.591,183.786 48.547,183.969 50.476,182.265 C50.624,182.135 50.763,181.996 50.893,181.848 L53.953,184.343 C52.353,186.306 49.954,187.454 47.416,187.454 Z" id="Shape"></path>
            </g>
            <path d="M505.464,41.652 C502.909,41.678 500.483,40.539 498.858,38.566 C497.163,36.628 494.216,36.436 492.287,38.131 C492.131,38.261 491.991,38.409 491.852,38.566 C488.662,42.199 483.125,42.547 479.5,39.357 C479.222,39.114 478.961,38.844 478.709,38.566 C477.005,36.628 474.059,36.436 472.12,38.14 C471.972,38.27 471.824,38.418 471.694,38.566 C468.504,42.199 462.967,42.547 459.342,39.357 C459.064,39.114 458.803,38.844 458.551,38.566 L461.619,36.063 C463.314,38.001 466.261,38.193 468.19,36.498 C468.346,36.368 468.486,36.22 468.625,36.063 C471.815,32.43 477.335,32.073 480.968,35.263 C481.255,35.515 481.524,35.785 481.768,36.063 C483.472,38.001 486.418,38.193 488.357,36.489 C488.505,36.359 488.653,36.211 488.783,36.063 C491.973,32.43 497.492,32.073 501.126,35.263 C501.413,35.515 501.682,35.785 501.926,36.063 C503.63,38.001 506.576,38.193 508.515,36.489 C508.663,36.359 508.811,36.211 508.941,36.063 L512.001,38.566 C510.392,40.522 507.993,41.652 505.464,41.652 Z" id="Shape" fill="#75B0F4"></path>
            <path d="M331.908,454.788 C329.361,454.797 326.945,453.649 325.337,451.668 C323.625,449.73 320.669,449.547 318.74,451.251 C318.592,451.381 318.453,451.52 318.323,451.668 C315.133,455.301 309.613,455.658 305.98,452.468 C305.693,452.216 305.424,451.946 305.18,451.668 C303.468,449.73 300.512,449.547 298.583,451.251 C298.435,451.381 298.296,451.52 298.166,451.668 C294.976,455.301 289.439,455.649 285.814,452.459 C285.536,452.216 285.275,451.946 285.023,451.668 L288.091,449.165 C289.786,451.103 292.724,451.303 294.662,449.608 C294.818,449.469 294.966,449.321 295.105,449.165 C298.295,445.532 303.814,445.175 307.448,448.365 C307.735,448.617 308.004,448.887 308.248,449.165 C309.934,451.103 312.872,451.295 314.811,449.608 C314.967,449.469 315.115,449.321 315.254,449.165 C318.444,445.532 323.981,445.184 327.606,448.374 C327.884,448.617 328.145,448.887 328.397,449.165 C330.092,451.103 333.03,451.303 334.968,449.608 C335.124,449.469 335.272,449.321 335.411,449.165 L338.479,451.668 C336.871,453.641 334.455,454.788 331.908,454.788 Z" id="Shape" fill="#FF60A1"></path>
            <g id="Group" transform="translate(114.000000, 79.000000)" fill="#75B0F4">
                <path d="M13.591,77.431 C11.948,77.44 10.314,77.118 8.793,76.492 L10.288,72.833 C11.34,73.259 12.461,73.476 13.591,73.476 L13.591,77.431 Z M18.424,76.467 L16.903,72.816 C17.955,72.373 18.902,71.738 19.711,70.93 L22.51,73.72 C21.345,74.893 19.954,75.832 18.424,76.467 Z M4.665,73.772 C3.483,72.607 2.553,71.217 1.91,69.687 L5.552,68.157 C5.995,69.209 6.639,70.156 7.447,70.956 L4.665,73.772 Z M25.248,69.626 L21.589,68.114 C22.024,67.062 22.25,65.932 22.25,64.794 L25.388,64.69 L26.205,64.69 C26.221,66.384 25.891,68.061 25.248,69.626 Z M0.91,64.854 L0.91,64.793 C0.91,63.159 1.223,61.542 1.84,60.03 L5.508,61.525 C5.082,62.559 4.865,63.672 4.873,64.793 L0.91,64.854 Z M21.536,61.377 C21.093,60.325 20.449,59.378 19.632,58.587 L22.396,55.753 C23.578,56.918 24.526,58.3 25.177,59.821 L21.536,61.377 Z M7.368,58.691 L4.552,55.91 C5.717,54.737 7.099,53.798 8.62,53.146 L10.167,56.788 C9.124,57.24 8.176,57.883 7.368,58.691 Z M16.799,56.727 C15.773,56.31 14.669,56.101 13.557,56.101 L13.461,52.146 L13.557,52.146 C15.174,52.146 16.782,52.45 18.286,53.059 L16.799,56.727 Z" id="Shape"></path>
                <path d="M311.053,377.848 C309.41,377.848 307.776,377.535 306.255,376.909 L307.759,373.25 C308.802,373.676 309.923,373.893 311.053,373.893 L311.053,377.848 Z M315.886,376.883 L314.356,373.232 C315.408,372.789 316.364,372.154 317.172,371.346 L319.971,374.136 C318.797,375.31 317.415,376.24 315.886,376.883 Z M302.117,374.189 C300.944,373.024 300.005,371.642 299.362,370.112 L303.013,368.582 C303.456,369.634 304.1,370.581 304.908,371.381 L302.117,374.189 Z M322.7,370.043 L319.049,368.531 C319.484,367.479 319.701,366.349 319.701,365.211 L323.656,365.089 L323.656,365.211 C323.656,366.87 323.335,368.513 322.7,370.043 Z M298.675,365.271 L298.379,365.271 C298.37,363.62 298.683,361.985 299.3,360.456 L302.968,361.942 C302.551,362.976 302.333,364.089 302.333,365.21 L298.675,365.271 Z M319.015,361.794 C318.563,360.742 317.911,359.795 317.094,358.995 L319.867,356.179 C321.049,357.335 321.997,358.717 322.648,360.238 L319.015,361.794 Z M304.829,359.108 L302.013,356.335 C303.178,355.153 304.56,354.205 306.09,353.562 L307.628,357.204 C306.576,357.656 305.629,358.299 304.829,359.116 L304.829,359.108 Z M314.269,357.144 C313.235,356.727 312.131,356.518 311.018,356.518 L310.922,352.563 L311.018,352.563 C312.635,352.546 314.243,352.841 315.746,353.432 L314.269,357.144 Z" id="Shape"></path>
                <path d="M311.053,25.861 C309.41,25.861 307.776,25.539 306.255,24.922 L307.759,21.254 C308.802,21.689 309.923,21.906 311.053,21.906 L311.053,25.861 Z M315.886,24.888 L314.356,21.237 C315.408,20.802 316.364,20.159 317.164,19.351 L319.972,22.15 C318.806,23.323 317.415,24.253 315.886,24.888 Z M302.117,22.202 C300.944,21.029 300.005,19.647 299.362,18.117 L303.013,16.587 C303.448,17.639 304.091,18.586 304.908,19.386 L302.117,22.202 Z M322.7,18.056 L319.049,16.535 C319.484,15.483 319.701,14.362 319.701,13.223 L323.656,13.101 L323.656,13.223 C323.656,14.883 323.335,16.526 322.7,18.056 Z M298.362,13.284 L298.362,13.223 C298.362,11.589 298.675,9.972 299.292,8.46 L302.951,9.946 C302.534,10.989 302.316,12.102 302.316,13.223 L298.362,13.284 Z M318.989,9.807 C318.546,8.755 317.894,7.808 317.085,7.008 L319.849,4.183 C321.031,5.348 321.979,6.73 322.63,8.251 L318.989,9.807 Z M304.821,7.112 L302.005,4.339 C303.161,3.157 304.543,2.209 306.073,1.566 L307.62,5.208 C306.577,5.66 305.638,6.312 304.839,7.12 L304.821,7.112 Z M314.252,5.157 C313.218,4.74 312.114,4.531 311.001,4.531 L310.914,0.576 L311.001,0.576 C312.618,0.559 314.226,0.854 315.73,1.445 L314.252,5.157 Z" id="Shape"></path>
            </g>
            <path d="M29.31,487.427 C27.667,487.436 26.033,487.114 24.512,486.488 L26.016,482.829 C27.059,483.255 28.18,483.472 29.31,483.472 L29.31,487.427 Z M34.143,486.462 L32.613,482.811 C33.665,482.368 34.621,481.733 35.429,480.925 L38.228,483.715 C37.054,484.889 35.672,485.819 34.143,486.462 Z M20.374,483.768 C19.192,482.603 18.262,481.213 17.619,479.683 L21.313,478.153 C21.73,479.213 22.356,480.187 23.164,480.995 L20.374,483.768 Z M40.957,479.621 L37.306,478.109 C37.741,477.057 37.958,475.927 37.958,474.789 L41.131,474.693 L41.913,474.693 C41.931,476.379 41.6,478.057 40.957,479.621 Z M16.619,474.849 L16.619,474.788 C16.619,473.154 16.932,471.537 17.549,470.025 L21.208,471.52 C20.791,472.554 20.573,473.667 20.573,474.788 L16.619,474.849 Z M37.246,471.373 C36.803,470.321 36.151,469.374 35.334,468.583 L38.107,465.758 C39.289,466.914 40.237,468.296 40.888,469.817 L37.246,471.373 Z M23.078,468.687 L20.262,465.906 C21.427,464.724 22.809,463.785 24.33,463.142 L25.877,466.784 C24.834,467.236 23.887,467.879 23.096,468.696 L23.078,468.687 Z M32.508,466.722 C31.474,466.305 30.37,466.096 29.257,466.096 L29.196,462.741 L29.196,462.193 C30.83,462.176 32.456,462.471 33.977,463.062 L32.508,466.722 Z" id="Shape" fill="#FF60A1"></path>
            <g id="Group" transform="translate(30.000000, 50.000000)" fill="#75B0F4">
                <rect id="Rectangle-path" x="7.958" y="0.214" width="3.955" height="18.705"></rect>
                <rect id="Rectangle-path" x="0.588" y="7.585" width="18.705" height="3.955"></rect>
            </g>
            <path d="M327.849,196.65 C326.91,195.511 325.511,194.851 324.033,194.851 L182.117,194.851 L176.737,167.445 C176.285,165.124 174.251,163.447 171.887,163.447 L154.146,163.447 C151.417,159.866 146.297,159.179 142.716,161.909 C139.135,164.638 138.448,169.758 141.178,173.339 C143.907,176.92 149.027,177.607 152.608,174.878 C153.19,174.435 153.703,173.922 154.147,173.339 L167.854,173.339 L173.121,200.18 C173.121,200.371 173.121,200.554 173.164,200.745 L191.817,296.462 C191.904,296.792 192.026,297.114 192.182,297.418 L198.188,328.04 C198.649,330.361 200.683,332.03 203.047,332.038 L210.8,332.038 C210.313,333.385 210.061,334.802 210.044,336.228 C210.053,343.46 215.911,349.31 223.143,349.31 C230.366,349.301 236.216,343.452 236.225,336.228 C236.208,334.802 235.956,333.386 235.469,332.038 L262.623,332.038 C262.136,333.385 261.884,334.802 261.867,336.228 C262.05,343.451 268.064,349.162 275.288,348.979 C282.25,348.796 287.857,343.199 288.039,336.228 C288.022,334.802 287.77,333.386 287.291,332.038 L295.983,332.038 C298.712,332.038 300.929,329.822 300.929,327.092 C300.929,324.362 298.713,322.146 295.983,322.146 L207.115,322.146 L202.856,300.416 L305.38,300.416 C307.744,300.416 309.778,298.738 310.23,296.418 L328.883,200.7 C329.153,199.266 328.779,197.78 327.849,196.65 Z M315.68,216.963 L294.819,216.963 L296.245,204.742 L318.027,204.742 L315.68,216.963 Z M311.951,236.086 L292.576,236.086 L294.314,220.901 L314.836,220.901 L311.951,236.086 Z M308.214,255.209 L290.334,255.209 L292.072,240.015 L311.099,240.015 L308.214,255.209 Z M304.485,274.331 L288.1,274.331 L289.838,259.146 L307.379,259.146 L304.485,274.331 Z M234.67,204.673 L235.148,216.894 L211.219,216.894 L209.785,204.673 L234.67,204.673 Z M292.298,204.673 L290.864,216.894 L266.935,216.894 L267.413,204.673 L292.298,204.673 Z M240.598,255.182 L240.007,239.988 L262.085,239.988 L261.494,255.182 L240.598,255.182 Z M261.363,259.146 L260.772,274.331 L241.31,274.331 L240.719,259.146 L261.363,259.146 Z M213.948,240.023 L236.009,240.023 L236.609,255.217 L215.696,255.217 L213.948,240.023 Z M211.748,255.217 L193.99,255.217 L191.009,240.023 L209.932,240.023 L211.748,255.217 Z M239.85,236.095 L239.259,220.91 L262.858,220.91 L262.258,236.095 L239.85,236.095 Z M266.065,240.05 L288.16,240.05 L286.422,255.244 L265.44,255.244 L266.065,240.05 Z M266.222,236.095 L266.813,220.91 L290.403,220.91 L288.665,236.095 L266.222,236.095 Z M263.006,216.972 L239.103,216.972 L238.616,204.742 L263.467,204.742 L263.006,216.972 Z M235.304,220.927 L235.895,236.112 L213.452,236.112 L211.714,220.927 L235.304,220.927 Z M209.506,236.112 L190.236,236.112 L187.255,220.927 L207.69,220.927 L209.506,236.112 Z M194.799,259.224 L212.183,259.224 L213.921,274.409 L197.762,274.409 L194.799,259.224 Z M216.19,259.224 L236.79,259.224 L237.381,274.409 L217.937,274.409 L216.19,259.224 Z M237.538,278.347 L238.016,290.559 L219.823,290.559 L218.398,278.347 L237.538,278.347 Z M241.502,278.347 L260.625,278.347 L260.147,290.559 L241.946,290.559 L241.502,278.347 Z M264.579,278.347 L283.702,278.347 L282.268,290.559 L264.067,290.559 L264.579,278.347 Z M264.692,274.401 L265.283,259.216 L285.892,259.216 L284.154,274.401 L264.692,274.401 Z M205.803,204.742 L207.229,216.963 L186.464,216.963 L184.065,204.742 L205.803,204.742 Z M198.519,278.356 L214.408,278.356 L215.842,290.568 L200.918,290.568 L198.519,278.356 Z M286.205,290.568 L287.631,278.356 L303.685,278.356 L301.303,290.568 L286.205,290.568 Z" id="Shape" fill="#DDDDDD"></path>
            <g id="Group" transform="translate(188.000000, 197.000000)" fill="#FFFFFF">
                <path d="M129.784,81.356 L13.614,81.356 C12.667,81.356 11.85,80.687 11.676,79.757 L7.938,60.634 C7.729,59.556 8.433,58.522 9.511,58.313 C9.633,58.287 9.763,58.278 9.885,58.278 L133.513,58.278 C134.608,58.208 135.547,59.034 135.625,60.121 C135.695,61.216 134.869,62.155 133.782,62.233 C133.695,62.242 133.608,62.242 133.521,62.233 L12.284,62.233 L15.239,77.427 L129.784,77.427 C130.879,77.497 131.705,78.444 131.627,79.539 C131.557,80.53 130.775,81.321 129.784,81.382 L129.784,81.356 Z" id="Shape"></path>
                <path d="M137.241,43.058 L6.147,43.058 C5.2,43.058 4.391,42.389 4.209,41.459 L0.48,22.336 C0.358,21.754 0.515,21.154 0.889,20.693 C1.263,20.241 1.828,19.972 2.419,19.972 L141.015,19.972 C142.11,19.972 142.997,20.859 142.997,21.954 C142.997,23.049 142.11,23.927 141.015,23.936 L4.817,23.936 L7.781,39.121 L137.241,39.121 C138.336,39.051 139.275,39.877 139.353,40.964 C139.431,42.051 138.597,42.998 137.51,43.076 C137.423,43.085 137.336,43.085 137.249,43.076 L137.249,43.059 L137.241,43.059 L137.241,43.058 Z" id="Shape"></path>
                <path d="M39.081,100.496 C38.081,100.487 37.247,99.749 37.117,98.758 L25.93,3.023 C25.86,2.458 26.034,1.893 26.417,1.476 C26.791,1.059 27.33,0.815 27.895,0.815 L57.092,0.815 C58.152,0.815 59.03,1.658 59.074,2.719 L62.786,98.437 C62.829,99.524 61.986,100.445 60.891,100.488 C59.822,100.558 58.901,99.741 58.831,98.671 C58.831,98.645 58.831,98.619 58.831,98.593 L55.18,4.77 L30.112,4.77 L41.055,98.288 C41.185,99.374 40.403,100.348 39.325,100.478 L39.316,100.478 L39.081,100.496 Z" id="Shape"></path>
                <path d="M104.307,100.496 L104.081,100.496 C102.994,100.366 102.221,99.392 102.343,98.306 L113.278,4.788 L88.2,4.788 L84.515,98.593 C84.489,99.662 83.611,100.514 82.533,100.488 C82.507,100.488 82.481,100.488 82.463,100.488 C81.376,100.453 80.533,99.541 80.568,98.454 C80.568,98.445 80.568,98.437 80.568,98.437 L84.297,2.719 C84.34,1.659 85.21,0.815 86.27,0.815 L115.475,0.815 C116.562,0.815 117.448,1.693 117.457,2.779 C117.457,2.857 117.448,2.935 117.44,3.022 L106.245,98.74 C106.132,99.731 105.307,100.487 104.307,100.496 Z" id="Shape"></path>
            </g>
            <g id="Group" transform="translate(153.000000, 163.000000)" fill="#507FD1">
                <path d="M151.676,169.038 L58.67,169.038 C56.306,169.038 54.272,167.369 53.82,165.048 L23.476,10.328 L5.127,10.328 C2.398,10.328 0.181,8.112 0.181,5.382 C0.181,2.653 2.397,0.436 5.127,0.436 L27.587,0.436 C29.951,0.436 31.985,2.105 32.437,4.426 L62.79,159.146 L151.675,159.146 C154.404,159.146 156.621,161.362 156.621,164.092 C156.621,166.822 154.405,169.038 151.676,169.038 Z" id="Shape"></path>
                <path d="M161.046,137.46 L52.342,137.46 C49.978,137.46 47.944,135.782 47.492,133.462 L28.83,37.744 C28.308,35.058 30.073,32.459 32.759,31.938 C33.063,31.877 33.376,31.851 33.689,31.851 L179.716,31.851 C182.454,31.851 184.67,34.076 184.662,36.814 C184.662,37.127 184.627,37.44 184.575,37.744 L165.904,133.462 C165.453,135.782 163.41,137.46 161.046,137.46 Z M56.419,127.568 L156.978,127.568 L173.71,41.742 L39.687,41.742 L56.419,127.568 Z" id="Shape"></path>
            </g>
            <circle id="Oval" fill="#84CE64" cx="231.766" cy="336.228" r="9.127"></circle>
            <path d="M231.766,349.309 C224.534,349.335 218.65,343.503 218.624,336.271 C218.598,329.039 224.43,323.155 231.662,323.129 C238.894,323.103 244.778,328.935 244.804,336.167 C244.804,336.184 244.804,336.21 244.804,336.228 C244.796,343.434 238.972,349.275 231.766,349.309 Z M231.766,331.056 C228.889,331.03 226.533,333.351 226.507,336.228 C226.481,339.105 228.802,341.461 231.679,341.487 C234.556,341.513 236.912,339.192 236.938,336.315 C236.938,336.298 236.938,336.289 236.938,336.272 C236.947,333.403 234.635,331.073 231.766,331.056 Z" id="Shape" fill="#26DAB8"></path>
            <circle id="Oval" fill="#507FD1" cx="156.38" cy="168.392" r="8.153"></circle>
            <circle id="Oval" fill="#84CE64" cx="283.589" cy="336.228" r="9.127"></circle>
            <path d="M283.589,349.309 C276.357,349.309 270.499,343.451 270.499,336.219 C270.499,328.987 276.357,323.129 283.589,323.129 C290.821,323.129 296.679,328.987 296.679,336.219 L296.679,336.228 C296.67,343.451 290.812,349.301 283.589,349.309 Z M283.589,331.056 C280.712,331.03 278.356,333.351 278.33,336.228 C278.304,339.105 280.625,341.461 283.502,341.487 C286.379,341.513 288.735,339.192 288.761,336.315 C288.761,336.298 288.761,336.289 288.761,336.272 C288.769,333.403 286.457,331.073 283.589,331.056 Z" id="Shape" fill="#26DAB8"></path>
        </g>
    </g>
</svg>