<?xml version="1.0" encoding="UTF-8"?>
<svg width="159px" height="152px" viewBox="0 0 159 152" version="1.1" xmlns="http://www.w3.org/2000/svg" xmlns:xlink="http://www.w3.org/1999/xlink">
    <!-- Generator: Sketch 49.3 (51167) - http://www.bohemiancoding.com/sketch -->
    <title>wallet</title>
    <desc>Created with Sketch.</desc>
    <defs></defs>
    <g id="Page-1" stroke="none" stroke-width="1" fill="none" fill-rule="evenodd">
        <g id="Desktop-Copy-46" transform="translate(-578.000000, -760.000000)" fill-rule="nonzero">
            <g id="wallet" transform="translate(578.000000, 760.000000)">
                <path d="M76.5713867,148.70537 C36.2074453,148.708063 3.48485156,116.156126 3.48244531,76.0026929 C3.4794375,35.8492598 36.2020313,3.29732283 76.5659727,3.29462992 C116.929914,3.29193701 149.652508,35.843874 149.655215,75.9973071 L149.655215,76 C149.610699,116.135181 116.91698,148.658394 76.5713867,148.70537 Z" id="Shape" fill="#F6F7F8"></path>
                <g id="Group">
                    <ellipse id="Oval" fill="#E5E9EE" cx="76.5713867" cy="76" rx="55.2390781" ry="54.9509921"></ellipse>
                    <path d="M0.768496094,4.55611024 L0,4.55611024 L0,3.37272441 L0.768496094,3.37272441 C2.07569141,3.37272441 3.13714844,2.31680315 3.13714844,1.0164252 L3.13714844,0.251937008 L4.31891797,0.251937008 L4.31891797,1.0164252 C4.31621094,2.96699213 2.72928906,4.55072441 0.768496094,4.55611024 Z" id="Shape" fill="#EEEEEE"></path>
                    <path d="M7.45576562,4.55611024 L6.69508984,4.55611024 C4.73189063,4.55341732 3.13985547,2.96968504 3.13714844,1.01672441 L3.13714844,0.251937008 L4.31891797,0.251937008 L4.31891797,1.0164252 C4.321625,2.31680315 5.380375,3.3700315 6.68757031,3.37272441 L7.45606641,3.37272441 L7.45606641,4.55611024 L7.45576562,4.55611024 Z" id="Shape" fill="#EEEEEE"></path>
                    <path d="M4.31861719,7.67929134 L3.13714844,7.67929134 L3.13714844,6.91211024 C3.13444141,5.61173228 2.07569141,4.55850394 0.768496094,4.55581102 L0,4.55581102 L0,3.3724252 L0.768496094,3.3724252 C2.72928906,3.37751181 4.31591016,4.96154331 4.31861719,6.91181102 C4.31861719,6.91211024 4.31861719,7.67929134 4.31861719,7.67929134 Z" id="Shape" fill="#EEEEEE"></path>
                    <path d="M4.31861719,7.67929134 L3.13714844,7.67929134 L3.13714844,6.91211024 C3.13985547,4.95914961 4.73189063,3.37541732 6.69508984,3.37272441 L7.45576563,3.37272441 L7.45576563,4.55611024 L6.69508984,4.55611024 C5.38789453,4.55880315 4.32914453,5.6120315 4.3264375,6.91240945 L4.31861719,7.67929134 Z" id="Shape" fill="#EEEEEE"></path>
                </g>
                <g id="Group" transform="translate(29.476562, 127.165354)" fill="#75B0F4">
                    <path d="M120.178652,20.9104724 C119.234801,20.9104724 118.327645,20.5358583 117.66382,19.8701102 L117.120008,19.3291339 L117.961895,18.4916378 L118.505707,19.0326142 C119.444145,19.921874 120.916168,19.921874 121.854605,19.0326142 L122.398418,18.4916378 L123.240305,19.3291339 L122.696492,19.8701102 C122.029359,20.5388504 121.12491,20.9131654 120.178652,20.9104724 Z" id="Shape"></path>
                    <path d="M122.398117,24.5827087 L121.854305,24.0417323 C120.466199,22.6581732 120.466199,20.4191654 121.854305,19.0356063 L122.398117,18.4946299 L123.240004,19.332126 L122.696191,19.8731024 C121.773395,20.7937795 121.773395,22.2838583 122.696191,23.2045354 L123.240004,23.7482047 L122.398117,24.5827087 Z" id="Shape"></path>
                    <path d="M117.961594,24.5827087 L117.119707,23.7479055 L117.66352,23.2042362 C118.586316,22.2835591 118.586316,20.7934803 117.66352,19.8728031 L117.119707,19.3318268 L117.961594,18.4943307 L118.505406,19.0353071 C119.891105,20.4188661 119.891105,22.657874 118.505406,24.0414331 L117.961594,24.5827087 Z" id="Shape"></path>
                    <path d="M122.398117,24.5827087 L121.854305,24.0417323 C120.928801,23.123748 119.43091,23.123748 118.505406,24.0417323 L117.961594,24.5827087 L117.119707,23.7479055 L117.66352,23.2042362 C119.054332,21.8257638 121.305078,21.8257638 122.695891,23.2042362 L123.239703,23.7479055 L122.398117,24.5827087 Z" id="Shape"></path>
                    <path d="M0.851210937,4.51362205 L0.0827148437,4.51362205 L0.0827148437,3.33023622 L0.851210937,3.33023622 C2.1608125,3.33023622 3.21986328,2.27700787 3.22226953,0.973937008 L3.22226953,0.209448819 L4.41185937,0.209448819 L4.41185937,0.973937008 C4.40915234,2.92988976 2.81711719,4.51122835 0.851210937,4.51362205 Z" id="Shape"></path>
                    <path d="M7.54900781,4.51362205 L6.78051172,4.51362205 C4.8173125,4.51092913 3.22527734,2.92719685 3.22257031,0.97423622 L3.22257031,0.209748031 L4.41216016,0.209748031 L4.41216016,0.97423622 C4.41216016,2.27461417 5.47361719,3.33053543 6.7808125,3.33053543 L7.54930859,3.33053543 L7.54930859,4.51362205 L7.54900781,4.51362205 Z" id="Shape"></path>
                    <path d="M4.41185938,7.63710236 L3.22226953,7.63710236 L3.22226953,6.86992126 C3.2195625,5.56954331 2.15840625,4.51631496 0.851210938,4.51392126 L0.0827148438,4.51392126 L0.0827148438,3.33053543 L0.851210938,3.33053543 C2.81711719,3.33322835 4.40915234,4.91426772 4.41185938,6.86992126 C4.41185938,6.86992126 4.41185938,7.63710236 4.41185938,7.63710236 Z" id="Shape"></path>
                    <path d="M4.41185938,7.63710236 L3.22226953,7.63710236 L3.22226953,6.86992126 C3.22497656,4.91696063 4.81701172,3.33322835 6.78021094,3.33053543 L7.54870703,3.33053543 L7.54870703,4.51392126 L6.78021094,4.51392126 C5.47301563,4.51661417 4.41426563,5.56984252 4.41155859,6.86992126 L4.41155859,7.63710236 L4.41185938,7.63710236 Z" id="Shape"></path>
                </g>
                <g id="Group" transform="translate(121.816406, 56.251969)" fill="#FF60A1">
                    <path d="M7.22266016,55.8677795 L6.43852344,55.8677795 L6.43852344,54.6843937 L7.22266016,54.6843937 C8.52985547,54.6843937 9.5913125,53.6284724 9.5913125,52.3280945 L9.5913125,51.5636063 L10.7809023,51.5636063 L10.7809023,52.3280945 C10.7781953,54.2816535 9.18616016,55.8653858 7.22266016,55.8677795 Z" id="Shape"></path>
                    <path d="M13.920457,55.8677795 L13.1519609,55.8677795 C11.1860547,55.8650866 9.59401953,54.2840472 9.5913125,52.3283937 L9.5913125,51.5639055 L10.7809023,51.5639055 L10.7809023,52.3283937 C10.7836094,53.6311654 11.8423594,54.6846929 13.1519609,54.6846929 L13.920457,54.6846929 L13.920457,55.8677795 Z" id="Shape"></path>
                    <path d="M10.7809023,58.9912598 L9.5913125,58.9912598 L9.5913125,58.2112126 C9.58860547,56.9108346 8.52985547,55.8576063 7.22266016,55.8549134 L6.43852344,55.8549134 L6.43852344,54.6715276 L7.22266016,54.6715276 C9.18856641,54.6742205 10.7833086,56.2606457 10.7806016,58.2162992 C10.7806016,58.2240787 10.7806016,58.2291654 10.7806016,58.2372441 L10.7806016,58.9912598 L10.7809023,58.9912598 Z" id="Shape"></path>
                    <path d="M10.7809023,58.9912598 L9.5913125,58.9912598 L9.5913125,58.2112126 C9.59401953,56.2555591 11.1860547,54.6745197 13.1519609,54.6718268 L13.920457,54.6718268 L13.920457,55.8552126 L13.1519609,55.8552126 C11.8447656,55.8579055 10.7836094,56.9111339 10.7809023,58.2115118 L10.7809023,58.9912598 Z" id="Shape"></path>
                    <path d="M2.80719141,5.44477165 C1.337875,5.44477165 0.145878906,4.25899213 0.145878906,2.79733858 C0.145878906,1.33568504 1.337875,0.149905512 2.80719141,0.149905512 C4.27650781,0.149905512 5.46850391,1.33568504 5.46850391,2.79733858 C5.46609766,4.25869291 4.27650781,5.44207874 2.80719141,5.44477165 Z M2.80719141,1.33299213 C1.99417969,1.33299213 1.33546875,1.98826772 1.33546875,2.79703937 C1.33546875,3.60581102 1.99417969,4.26108661 2.80719141,4.26108661 C3.62020312,4.26108661 4.27891406,3.60581102 4.27891406,2.79703937 C4.28162109,1.98826772 3.62260937,1.33299213 2.80959766,1.33029921 L2.80689062,1.33029921 L2.80689062,1.33299213 L2.80719141,1.33299213 Z" id="Shape"></path>
                </g>
                <path d="M82.082,126.347906 C80.0063086,126.347906 78.3228359,124.673213 78.3228359,122.608346 C78.3228359,120.54348 80.0063086,118.868787 82.082,118.868787 C84.1576914,118.868787 85.8411641,120.54348 85.8411641,122.608346 C85.8387578,124.672913 84.1576914,126.345213 82.082,126.347906 Z M82.082,120.051874 C80.6626133,120.051874 79.512125,121.196063 79.512125,122.608346 C79.512125,124.02063 80.6623125,125.164819 82.082,125.164819 C83.5016875,125.164819 84.651875,124.02063 84.651875,122.608346 C84.649168,121.196063 83.5016875,120.054268 82.082,120.051874 Z" id="Shape" fill="#75B0F4"></path>
                <g id="Group" transform="translate(6.316406, 6.283465)" fill="#FF60A1">
                    <path d="M21.2219219,86.4930866 C19.7526055,86.4930866 18.5606094,85.3073071 18.5606094,83.8456535 C18.5606094,82.384 19.7526055,81.1982205 21.2219219,81.1982205 C22.6912383,81.1982205 23.8832344,82.384 23.8832344,83.8456535 C23.8808281,85.3073071 22.6912383,86.4903937 21.2219219,86.4930866 Z M21.2219219,82.3816063 C20.4089102,82.3816063 19.7501992,83.0368819 19.7501992,83.8456535 C19.7501992,84.6544252 20.4089102,85.3097008 21.2219219,85.3097008 C22.0349336,85.3097008 22.6936445,84.6544252 22.6936445,83.8456535 C22.6912383,83.0368819 22.0352344,82.384 21.2219219,82.3816063 Z" id="Shape"></path>
                    <path d="M68.1871094,5.50222047 C66.717793,5.50222047 65.5257969,4.31644094 65.5257969,2.8547874 C65.5257969,1.39313386 66.717793,0.207354331 68.1871094,0.207354331 C69.6564258,0.207354331 70.8484219,1.39313386 70.8484219,2.8547874 C70.8457148,4.31644094 69.656125,5.49952756 68.1871094,5.50222047 Z M68.1871094,1.39074016 C67.3740977,1.39074016 66.7153867,2.04601575 66.7153867,2.8547874 C66.7153867,3.66355906 67.3740977,4.31883465 68.1871094,4.31883465 C69.0001211,4.31883465 69.658832,3.66355906 69.658832,2.8547874 C69.656125,2.04601575 69.0001211,1.39313386 68.1871094,1.39074016 Z" id="Shape"></path>
                    <path d="M14.2603398,56.1257008 C13.49425,56.1257008 12.7675625,55.7825039 12.2839063,55.1921575 C11.771375,54.6122835 10.8852734,54.5575276 10.3023594,55.0673858 C10.2578438,55.1062835 10.2160352,55.147874 10.1769336,55.1921575 C9.21744141,56.2791969 7.55742969,56.3857165 6.46469141,55.4315276 C6.37836719,55.356126 6.29745703,55.2756378 6.22406641,55.1921575 C5.70912891,54.6122835 4.82032031,54.5575276 4.2398125,55.0673858 C4.19529688,55.1062835 4.15348828,55.147874 4.11438672,55.1921575 C3.15489453,56.2791969 1.48976953,56.3833228 0.3994375,55.4288346 C0.315820313,55.356126 0.237316406,55.2753386 0.161519531,55.1921575 L1.08160938,54.4432283 C1.59414063,55.0231024 2.48024219,55.080252 3.06315625,54.5706929 C3.10767188,54.5317953 3.1521875,54.4875118 3.19128906,54.4432283 C4.15078125,53.356189 5.81079297,53.2496693 6.90353125,54.2038583 C6.98985547,54.2792598 7.07076563,54.359748 7.14415625,54.4432283 C7.6566875,55.0231024 8.54278906,55.080252 9.12570313,54.5706929 C9.17021875,54.5317953 9.21473438,54.4875118 9.25383594,54.4432283 C10.2133281,53.356189 11.8784531,53.252063 12.9687852,54.2065512 C13.0524023,54.2792598 13.1309063,54.3600472 13.2067031,54.4432283 C13.7192344,55.0231024 14.6053359,55.080252 15.18825,54.5706929 C15.2327656,54.5317953 15.2772813,54.4875118 15.3163828,54.4432283 L16.2364727,55.1921575 C15.7531172,55.7825039 15.0264297,56.1257008 14.2603398,56.1257008 Z" id="Shape"></path>
                </g>
                <path d="M156.096113,34.5784243 C155.330023,34.5811172 154.603336,34.2376211 154.122387,33.644881 C153.607449,33.0650069 152.718641,33.010251 152.138133,33.5201093 C152.093617,33.5590069 152.051809,33.6005975 152.012707,33.644881 C151.066449,34.7319203 149.416664,34.8489125 148.323926,33.9075896 C148.229781,33.8271014 148.141051,33.7385345 148.05984,33.644881 C147.547309,33.0650069 146.661207,33.010251 146.078293,33.5201093 C146.033777,33.5590069 145.991969,33.6005975 145.952867,33.644881 C145.006609,34.7319203 143.356824,34.8489125 142.264086,33.9075896 C142.169941,33.8271014 142.081211,33.7385345 142,33.644881 L142.92009,32.8986447 C143.435027,33.4785188 144.323836,33.5332747 144.904344,33.0234164 C144.948859,32.9845188 144.990668,32.9429282 145.02977,32.8986447 C145.976027,31.8116054 147.625812,31.6946132 148.718551,32.6359361 C148.812695,32.7164243 148.901426,32.8049912 148.982637,32.8986447 C149.495168,33.4785188 150.38127,33.5332747 150.964184,33.0234164 C151.008699,32.9845188 151.050508,32.9429282 151.089609,32.8986447 C152.049102,31.8116054 153.709113,31.7050857 154.801852,32.6592747 C154.888176,32.7346762 154.969086,32.8151644 155.042477,32.8986447 C155.557414,33.4785188 156.446223,33.5332747 157.02673,33.0234164 C157.071246,32.9845188 157.113055,32.9429282 157.152156,32.8986447 L158.072547,33.644881 C157.588891,34.2379203 156.862203,34.5811172 156.096113,34.5784243 Z" id="Shape" fill="#75B0F4"></path>
                <path d="M99.8250859,136.110614 C99.0589961,136.113307 98.3323086,135.769811 97.8486523,135.177071 C97.3388281,134.597197 96.4551328,134.537354 95.8722187,135.04452 C95.8252969,135.08611 95.7807812,135.130394 95.7389727,135.177071 C94.7794805,136.26411 93.1143555,136.368236 92.0240234,135.413748 C91.9404062,135.341039 91.8619023,135.260252 91.7861055,135.177071 C91.2789883,134.597197 90.395293,134.540047 89.8123789,135.04452 C89.765457,135.08611 89.7209414,135.130394 89.6791328,135.177071 C88.7196406,136.26411 87.0545156,136.368236 85.9641836,135.413748 C85.8805664,135.341039 85.8020625,135.260252 85.7262656,135.177071 L86.6463555,134.428142 C87.161293,135.008016 88.0501016,135.062772 88.6306094,134.552913 C88.675125,134.514016 88.7169336,134.472425 88.7560352,134.428142 C89.7155273,133.341102 91.3755391,133.234583 92.4682773,134.188772 C92.5546016,134.264173 92.6355117,134.344961 92.7089023,134.428142 C93.2214336,135.008016 94.1075352,135.062772 94.6904492,134.552913 C94.7349648,134.514016 94.7767734,134.472425 94.815875,134.428142 C95.7753672,133.341102 97.4380859,133.234583 98.5308242,134.188772 C98.6171484,134.264173 98.6956523,134.342268 98.7714492,134.428142 C99.2839805,135.008016 100.170082,135.062772 100.752996,134.552913 C100.797512,134.514016 100.83932,134.472425 100.878422,134.428142 L101.801219,135.177071 C101.317863,135.767118 100.590875,136.110614 99.8250859,136.110614 Z" id="Shape" fill="#FF60A1"></path>
                <g id="Group" transform="translate(34.289062, 23.637795)" fill="#75B0F4">
                    <path d="M4.08551172,23.2066299 C3.59132812,23.2066299 3.09985156,23.1102835 2.64236328,22.9232756 L3.09473828,21.8284567 C3.40845313,21.9559213 3.74562891,22.0235433 4.08551172,22.0235433 L4.08551172,23.2066299 Z M5.54159375,22.9154961 L5.08139844,21.8233701 C5.39782031,21.6908189 5.68266016,21.5008189 5.92569141,21.2590551 L6.76757812,22.0938583 C6.41746875,22.4448346 6.00178906,22.7254961 5.54159375,22.9154961 Z M1.40073828,22.1094173 C1.04792187,21.7608346 0.765488281,21.3473228 0.572085938,20.8898268 L1.6699375,20.4320315 C1.80077734,20.7468031 1.99417969,21.0301575 2.23721094,21.2695276 L1.40073828,22.1094173 Z M7.59111719,20.8688819 L6.49055859,20.4164724 C6.62139844,20.1017008 6.689375,19.7662835 6.689375,19.4257795 L7.87896484,19.3868819 L7.87896484,19.4257795 C7.87866406,19.9194803 7.78211328,20.4110866 7.59111719,20.8688819 Z M0.271304688,19.4437323 L0.271304688,19.4254803 C0.271304688,18.9365669 0.365449219,18.4527402 0.548324219,18.0003307 L1.65158984,18.4449606 C1.52345703,18.7570394 1.4581875,19.090063 1.46089453,19.4254803 L0.271304688,19.4437323 Z M6.47491797,18.4033701 C6.33896484,18.0912913 6.14285547,17.807937 5.89982422,17.5685669 L6.73389062,16.7232913 C7.08941406,17.071874 7.37184766,17.4853858 7.56795703,17.9404882 L6.47491797,18.4033701 Z M2.21104297,17.599685 L1.36404297,16.7675748 C1.71685937,16.4189921 2.13524609,16.1434173 2.59544141,15.9537165 L3.05804297,17.0434488 C2.74432812,17.1736063 2.45678125,17.3606142 2.21615625,17.5999843 L2.21104297,17.5999843 L2.21104297,17.599685 Z M5.05011719,17.0147244 C4.73910938,16.8899528 4.40704687,16.8250236 4.07227734,16.8250236 L4.04340234,15.6416378 L4.07227734,15.6416378 C4.55864062,15.6416378 5.04229687,15.7352913 5.49437109,15.9148189 L5.05011719,17.0147244 Z" id="Shape"></path>
                    <path d="M93.5580078,113.078724 L93.5580078,112.496157 L93.6650859,113.076031 L93.5580078,113.078724 Z M93.5580078,113.078724 C93.061418,113.083811 92.5672344,112.99285 92.1046328,112.805543 L92.5570078,111.713417 C92.8707227,111.840882 93.2078984,111.905811 93.5477813,111.905811 L93.5580078,113.078724 Z M95.0116836,112.797764 L94.5541953,111.705638 C94.8706172,111.573087 95.155457,111.380693 95.3984883,111.141323 L96.240375,111.976126 C95.8875586,112.327102 95.4664648,112.608063 95.0038633,112.798063 L95.0116836,112.797764 Z M90.8732344,111.994079 C90.5177109,111.645496 90.2379844,111.229591 90.044582,110.771795 L91.1400273,110.314 C91.2732734,110.628772 91.4666758,110.912126 91.7100078,111.151496 L90.8732344,111.994079 Z M97.061207,110.75115 L95.9633555,110.29874 C96.0941953,109.983969 96.1594648,109.648551 96.1594648,109.308047 L97.113543,109.276929 L97.3487539,109.276929 C97.3514609,109.784094 97.2519023,110.285874 97.0533867,110.751449 L97.061207,110.751449 L97.061207,110.75115 Z M89.827418,109.315528 L89.7383867,109.315528 C89.7356797,108.821528 89.8298242,108.332614 90.0181133,107.874819 L91.1186719,108.322142 C90.9932461,108.631528 90.9279766,108.964551 90.9279766,109.299969 L89.827418,109.315528 Z M95.9423008,108.275465 C95.8090547,107.960693 95.6129453,107.677339 95.367207,107.440661 L96.2012734,106.595386 C96.5567969,106.943969 96.8416367,107.35748 97.0377461,107.812583 L95.9423008,108.275465 Z M91.6811328,107.47178 L90.8341328,106.642063 C91.1818359,106.288394 91.5975156,106.005039 92.0577109,105.812346 L92.5230195,106.904472 C92.2065977,107.044803 91.9190508,107.245276 91.6811328,107.494819 L91.6811328,107.47178 Z M94.5175,106.88652 C94.2064922,106.761748 93.8744297,106.699213 93.5396602,106.699213 L93.5134922,105.515827 L93.5396602,105.515827 C94.0260234,105.515827 94.5096797,105.606787 94.9617539,105.789008 L94.5175,106.88652 Z" id="Shape"></path>
                    <path d="M93.5501875,7.77474016 C93.0560039,7.77474016 92.5645273,7.68108661 92.1070391,7.49377953 L92.5594141,6.39896063 C92.8731289,6.5264252 93.2103047,6.59135433 93.5501875,6.59135433 L93.5501875,7.77474016 Z M95.0035625,7.486 L94.5460742,6.39387402 C94.8624961,6.26371654 95.150043,6.07132283 95.3903672,5.82955906 L96.2322539,6.6643622 C95.8821445,7.0180315 95.4637578,7.29629921 95.0035625,7.486 Z M90.862707,6.67992126 C90.5098906,6.33133858 90.227457,5.91782677 90.0340547,5.46033071 L91.1319063,5.00253543 C91.2651523,5.31730709 91.4585547,5.60066142 91.7018867,5.8400315 L90.862707,6.67992126 Z M97.0533867,5.43938583 L95.9555352,4.98697638 C96.086375,4.67220472 96.1516445,4.33409449 96.1516445,3.99359055 L97.1057227,3.96486614 L97.3409336,3.96486614 C97.3460469,4.46933858 97.2491953,4.97111811 97.0533867,5.43938583 Z M89.7332734,4.01154331 L89.7332734,3.99059843 C89.7332734,3.50168504 89.827418,3.01785827 90.013,2.56544882 L91.1162656,3.01277165 C90.9881328,3.32215748 90.9228633,3.6551811 90.9228633,3.99059843 L89.7332734,4.01154331 Z M95.9368867,2.97148031 C95.8036406,2.65940157 95.6075313,2.37335433 95.3645,2.13667717 L96.1958594,1.29140157 C96.5540898,1.63729134 96.8362227,2.05080315 97.032332,2.50859843 L95.9368867,2.97148031 Z M91.6757188,2.16779528 L90.8287188,1.33807874 C91.1764219,0.984409449 91.5921016,0.701055118 92.0522969,0.508362205 L92.5176055,1.59809449 C92.2038906,1.73333858 91.9190508,1.9284252 91.6811328,2.17018898 L91.6757188,2.16779528 Z M94.5120859,1.58253543 C94.2010781,1.45776378 93.8690156,1.39283465 93.5342461,1.39283465 L93.5080781,0.209448819 L93.5342461,0.209448819 C94.0206094,0.209448819 94.5042656,0.303102362 94.9563398,0.485023622 L94.5120859,1.58253543 Z" id="Shape"></path>
                </g>
                <path d="M8.81529687,145.875717 C8.32111328,145.875717 7.82963672,145.77937 7.37214844,145.592362 L7.82692969,144.497543 C8.14064453,144.627701 8.47511328,144.69263 8.81499609,144.69263 L8.81499609,145.875717 L8.81529687,145.875717 Z M10.2686719,145.584583 L9.81118359,144.492457 C10.1276055,144.362299 10.4151523,144.169906 10.6554766,143.928142 L11.4973633,144.765638 C11.1445469,145.116315 10.7288672,145.394583 10.2686719,145.584583 Z M6.13052344,144.780898 C5.775,144.432315 5.49527344,144.016409 5.30187109,143.558614 L6.41025,143.095732 C6.54349609,143.410504 6.73689844,143.693858 6.98023047,143.933228 L6.13052344,144.780898 Z M12.3181953,143.540362 L11.2203437,143.095732 C11.3511836,142.780961 11.4164531,142.445543 11.4164531,142.105039 L12.606043,142.055669 L12.606043,142.092173 C12.6084492,142.588567 12.5091914,143.082866 12.3181953,143.540362 Z M4.99838281,142.112819 L4.99838281,142.094567 C4.99838281,141.605654 5.09252734,141.121827 5.27810937,140.669417 L6.381375,141.114047 C6.25324219,141.426126 6.18797266,141.75915 6.18797266,142.094567 L4.99838281,142.112819 Z M11.2019961,141.072457 C11.06875,140.757685 10.8726406,140.474331 10.6296094,140.234961 L11.4609687,139.389685 C11.8164922,139.738268 12.101332,140.15178 12.2974414,140.606882 L11.2019961,141.072457 Z M6.94082812,140.266378 L6.09382812,139.436661 C6.44153125,139.082992 6.85721094,138.799638 7.31740625,138.606945 L7.78271484,139.696677 C7.469,139.831921 7.18656641,140.027008 6.94624219,140.268772 L6.94082812,140.266378 Z M9.77719531,139.681118 C9.4661875,139.556346 9.134125,139.493811 8.79935547,139.493811 L8.7731875,138.310425 L8.79935547,138.310425 C9.28571875,138.310425 9.769375,138.401386 10.2214492,138.583606 L9.77719531,139.681118 Z" id="Shape" fill="#FF60A1"></path>
                <g id="Group" transform="translate(29.000000, 18.000000)" fill="#75B0F4">
                    <rect id="Rectangle-path" x="2.39301563" y="0.0966456693" width="1.18958984" height="5.59647244"></rect>
                    <rect id="Rectangle-path" x="0.175957031" y="2.30722835" width="5.6258125" height="1.18338583"></rect>
                </g>
                <path d="M103.186918,61.7772283 C104.274543,60.0166614 103.720203,57.7097323 101.950406,56.6280787 L67.2775469,35.4563937 C65.50775,34.3744409 63.1887266,34.9258898 62.1014023,36.6864567 L59.9159258,40.2258425 L58.1043203,43.1620157 L49.412043,57.2522362 C48.324418,59.0128031 48.8787578,61.3170394 50.6485547,62.3989921 C50.6485547,62.3989921 50.6512617,62.3989921 50.6512617,62.401685 L57.5006523,66.5834803 L60.9749766,66.9111181 L51.3283203,66.9111181 L51.3283203,109.600079 L91.7653516,109.600079 C95.3443477,109.600079 98.2459844,106.713276 98.2459844,103.153244 L98.2459844,73.3579528 C98.2459844,72.3125039 97.9897187,71.2853071 97.5009492,70.3595433 L97.8694062,70.3960472 L103.186918,61.7772283 Z" id="Shape" fill="#DDDDDD"></path>
                <path d="M61.2883906,66.5831811 L54.439,62.4013858 C52.6664961,61.322126 52.112457,59.0178898 53.197375,57.2546299 C53.197375,57.2546299 53.197375,57.251937 53.200082,57.251937 L65.8897422,36.6861575 C66.9773672,34.9255906 69.2960898,34.3741417 71.0658867,35.4560945 L105.75168,56.6277795 C107.524184,57.7070394 108.078223,60.0112756 106.993305,61.7745354 C106.993305,61.7745354 106.993305,61.7772283 106.990598,61.7772283 L101.673086,70.395748" id="Shape" fill="#2E58AE"></path>
                <polygon id="Shape" fill="#26DAB8" points="101.660152 70.395748 60.5460625 45.3465669 63.7066719 40.2258425 104.794594 65.3166142"></polygon>
                <g id="Group" transform="translate(58.953125, 52.362205)" fill="#FFFFFF">
                    <rect id="Rectangle-path" transform="translate(10.475951, 5.935250) rotate(121.539564) translate(-10.475951, -5.935250) " x="9.28648217" y="-3.02354389" width="2.37893707" height="17.9175877"></rect>
                    <rect id="Rectangle-path" transform="translate(6.055599, 7.891038) rotate(121.539564) translate(-6.055599, -7.891038) " x="4.86613064" y="1.68042899" width="2.37893707" height="12.4212171"></rect>
                </g>
                <path d="M95.5557969,109.59978 L55.1160586,109.59978 L55.1160586,66.9108189 L95.5557969,66.9108189 C99.134793,66.9108189 102.03643,69.797622 102.03643,73.3576535 L102.03643,103.152945 C102.03673,106.713276 99.134793,109.59978 95.5557969,109.59978 Z" id="Shape" fill="#7CABFB"></path>
                <g id="Group" transform="translate(55.042969, 69.417323)" fill="#26DAB8">
                    <rect id="Rectangle-path" x="0.0652695313" y="0.252834646" width="1.7854375" height="1.18338583"></rect>
                    <path d="M37.3471055,37.4311969 L33.7996914,37.4311969 L33.7996914,36.247811 L37.3471055,36.247811 L37.3471055,37.4311969 Z M30.2519766,37.4311969 L26.7069687,37.4311969 L26.7069687,36.247811 L30.2519766,36.247811 L30.2519766,37.4311969 Z M23.1595547,37.4311969 L19.6121406,37.4311969 L19.6121406,36.247811 L23.1595547,36.247811 L23.1595547,37.4311969 Z M16.0644258,37.4311969 L12.519418,37.4311969 L12.519418,36.247811 L16.0644258,36.247811 L16.0644258,37.4311969 Z M8.97200391,37.4311969 L5.42458984,37.4311969 L5.42458984,36.247811 L8.97200391,36.247811 L8.97200391,37.4311969 Z M40.9652031,37.4051654 L40.8214297,36.2295591 C41.7938555,36.1047874 42.6068672,35.4363465 42.9127617,34.5078898 L44.0446016,34.8720315 C43.5976406,36.2373386 42.3978242,37.2256378 40.9652031,37.4051654 Z M44.2277773,31.1767559 L43.0381875,31.1767559 L43.0381875,27.6478425 L44.2277773,27.6478425 L44.2277773,31.1767559 Z M44.2277773,24.1213228 L43.0381875,24.1213228 L43.0381875,20.5924094 L44.2277773,20.5924094 L44.2277773,24.1213228 Z M44.2277773,17.0631969 L43.0381875,17.0631969 L43.0381875,13.5342835 L44.2277773,13.5342835 L44.2277773,17.0631969 Z M44.2277773,10.0077638 L43.0381875,10.0077638 L43.0381875,6.47885039 L44.2277773,6.47885039 L44.2277773,10.0077638 Z M42.920582,3.15250394 C42.6095742,2.22404724 41.7887422,1.56099213 40.8136094,1.444 L40.9495625,0.268393701 C42.3848906,0.437448819 43.5925273,1.41527559 44.0500156,2.78058268 L42.920582,3.15250394 Z M37.3341719,1.42574803 L33.7813437,1.42574803 L33.7813437,0.242362205 L37.3263516,0.242362205 L37.3341719,1.42574803 Z M30.2414492,1.42574803 L26.6862148,1.42574803 L26.6862148,0.242362205 L30.2336289,0.242362205 L30.2414492,1.42574803 Z M23.1466211,1.42574803 L19.5989062,1.42574803 L19.5989062,0.242362205 L23.1439141,0.242362205 L23.1466211,1.42574803 Z M16.0541992,1.42574803 L12.4989648,1.42574803 L12.4989648,0.242362205 L16.0463789,0.242362205 L16.0541992,1.42574803 Z M8.95907031,1.42574803 L5.40624219,1.42574803 L5.40624219,0.242362205 L8.95125,0.242362205 L8.95907031,1.42574803 Z" id="Shape"></path>
                    <rect id="Rectangle-path" x="0.0652695313" y="36.247811" width="1.7854375" height="1.18338583"></rect>
                </g>
                <path d="M102.034023,92.0404882 L83.648168,92.0404882 C81.5096133,92.0404882 79.7738047,90.3137323 79.7738047,88.1863307 L79.7738047,87.0394488 C79.7738047,84.9120472 81.5096133,83.1852913 83.648168,83.1852913 L102.034023,83.1852913 L102.034023,92.0404882 Z" id="Shape" fill="#507FD1"></path>
                <ellipse id="Oval" fill="#FFFFFF" cx="85.9145547" cy="87.6142362" rx="2.2666875" ry="2.25486614"></ellipse>
            </g>
        </g>
    </g>
</svg>