<?xml version="1.0" encoding="UTF-8"?>
<svg width="154px" height="153px" viewBox="0 0 154 153" version="1.1" xmlns="http://www.w3.org/2000/svg" xmlns:xlink="http://www.w3.org/1999/xlink">
    <!-- Generator: Sketch 49.3 (51167) - http://www.bohemiancoding.com/sketch -->
    <title>chat</title>
    <desc>Created with Sketch.</desc>
    <defs></defs>
    <g id="Page-1" stroke="none" stroke-width="1" fill="none" fill-rule="evenodd">
        <g id="Desktop-Copy-46" transform="translate(-358.000000, -760.000000)" fill-rule="nonzero">
            <g id="chat" transform="translate(358.000000, 760.000000)">
                <path d="M76.5789063,149.055 C36.2140625,149.055 3.4890625,116.415 3.4890625,76.155 C3.4890625,35.895 36.2140625,3.255 76.5789063,3.255 C116.94375,3.255 149.66875,35.895 149.66875,76.155 C149.608594,116.385 116.913672,148.995 76.5789063,149.055 Z" id="Shape" fill="#F6F7F8"></path>
                <g id="Group">
                    <ellipse id="Oval" fill="#E5E9EE" cx="76.5789063" cy="76.155" rx="55.2535156" ry="55.11"></ellipse>
                    <path d="M0.78203125,4.515 L0,4.515 L0,3.315 L0.78203125,3.315 C2.10546875,3.315 3.15820313,2.265 3.15820313,0.945 L3.15820313,0.195 L4.33125,0.195 L4.33125,0.975 C4.33125,2.925 2.73710938,4.515 0.78203125,4.515 Z" id="Shape" fill="#EEEEEE"></path>
                    <path d="M7.459375,4.515 L6.70742188,4.515 C4.75234375,4.515 3.15820312,2.925 3.15820312,0.975 L3.15820312,0.195 L4.33125,0.195 L4.33125,0.975 C4.33125,2.265 5.38398438,3.345 6.70742188,3.345 L7.48945313,3.345 L7.48945313,4.515 L7.459375,4.515 Z" id="Shape" fill="#EEEEEE"></path>
                    <path d="M4.33125,7.635 L3.15820313,7.635 L3.15820313,6.885 C3.15820313,5.595 2.10546875,4.515 0.78203125,4.515 L0,4.515 L0,3.315 L0.78203125,3.315 C2.73710938,3.315 4.33125,4.905 4.33125,6.855 C4.33125,6.885 4.33125,7.635 4.33125,7.635 Z" id="Shape" fill="#EEEEEE"></path>
                    <path d="M4.33125,7.635 L3.15820312,7.635 L3.15820312,6.885 C3.15820312,4.935 4.75234375,3.345 6.70742187,3.345 L7.459375,3.345 L7.459375,4.545 L6.70742187,4.545 C5.4140625,4.545 4.33125,5.595 4.33125,6.915 L4.33125,7.635 Z" id="Shape" fill="#EEEEEE"></path>
                </g>
                <g id="Group" transform="translate(148.886719, 145.200000)" fill="#75B0F4">
                    <path d="M4.51171875,4.455 L3.7296875,4.455 C1.77460938,4.455 0.18046875,2.865 0.18046875,0.915 L0.18046875,0.135 L1.38359375,0.135 L1.38359375,0.915 C1.38359375,2.205 2.43632813,3.285 3.75976563,3.285 L4.54179688,3.285 L4.54179688,4.455 L4.51171875,4.455 Z" id="Shape"></path>
                    <path d="M1.38359375,7.575 L0.18046875,7.575 L0.18046875,6.795 C0.18046875,4.845 1.77460938,3.255 3.7296875,3.255 L4.51171875,3.255 L4.51171875,4.455 L3.7296875,4.455 C2.40625,4.455 1.35351563,5.505 1.35351563,6.825 L1.38359375,7.575 Z" id="Shape"></path>
                </g>
                <path d="M146.691016,149.655 L145.908984,149.655 L145.908984,148.455 L146.691016,148.455 C147.984375,148.455 149.067188,147.405 149.067188,146.085 L149.067188,145.305 L150.270313,145.305 L150.270313,146.085 C150.270313,148.065 148.676172,149.625 146.691016,149.655 Z" id="Shape" fill="#75B0F4"></path>
                <g id="Group" transform="translate(29.476562, 127.500000)" fill="#75B0F4">
                    <path d="M120.79375,25.275 L119.590625,25.275 L119.590625,24.495 C119.590625,23.205 118.537891,22.125 117.214453,22.125 L116.432422,22.125 L116.432422,20.925 L117.214453,20.925 C119.169531,20.925 120.763672,22.515 120.763672,24.465 L120.763672,25.275 L120.79375,25.275 Z" id="Shape"></path>
                    <path d="M0.8421875,4.485 L0.06015625,4.485 L0.06015625,3.285 L0.8421875,3.285 C2.165625,3.285 3.21835938,2.235 3.21835938,0.915 L3.21835938,0.135 L4.42148438,0.135 L4.42148438,0.915 C4.42148438,2.895 2.82734375,4.485 0.8421875,4.485 Z" id="Shape"></path>
                    <path d="M7.54960937,4.485 L6.76757812,4.485 C4.8125,4.485 3.21835937,2.895 3.21835937,0.945 L3.21835937,0.165 L4.42148438,0.165 L4.42148438,0.945 C4.42148438,2.235 5.47421875,3.315 6.79765625,3.315 L7.5796875,3.315 L7.5796875,4.485 L7.54960937,4.485 Z" id="Shape"></path>
                    <path d="M4.42148438,7.605 L3.21835938,7.605 L3.21835938,6.825 C3.21835938,5.505 2.165625,4.455 0.8421875,4.455 L0.06015625,4.455 L0.06015625,3.255 L0.8421875,3.255 C2.79726562,3.255 4.39140625,4.845 4.39140625,6.795 C4.42148438,6.855 4.42148438,7.605 4.42148438,7.605 Z" id="Shape"></path>
                    <path d="M4.42148438,7.605 L3.21835937,7.605 L3.21835937,6.825 C3.21835937,4.875 4.8125,3.285 6.76757812,3.285 L7.54960937,3.285 L7.54960937,4.485 L6.76757812,4.485 C5.47421875,4.485 4.39140625,5.535 4.39140625,6.855 L4.39140625,7.605 L4.42148438,7.605 Z" id="Shape"></path>
                </g>
                <g id="Group" transform="translate(121.816406, 56.400000)" fill="#FF60A1">
                    <path d="M7.21875,55.965 L6.43671875,55.965 L6.43671875,54.765 L7.21875,54.765 C8.5421875,54.765 9.59492187,53.715 9.59492187,52.395 L9.59492187,51.615 L10.7980469,51.615 L10.7980469,52.395 C10.7980469,54.375 9.20390625,55.965 7.21875,55.965 Z" id="Shape"></path>
                    <path d="M13.9261719,55.965 L13.1441406,55.965 C11.1890625,55.965 9.59492187,54.375 9.59492187,52.425 L9.59492187,51.645 L10.7980469,51.645 L10.7980469,52.425 C10.7980469,53.715 11.8507812,54.795 13.1742187,54.795 L13.95625,54.795 L13.9261719,55.965 Z" id="Shape"></path>
                    <path d="M10.7980469,59.085 L9.59492187,59.085 L9.59492187,58.305 C9.59492187,57.015 8.5421875,55.935 7.21875,55.935 L6.43671875,55.935 L6.43671875,54.735 L7.21875,54.735 C9.17382812,54.735 10.7679687,56.325 10.7679687,58.275 L10.7679687,59.085 L10.7980469,59.085 Z" id="Shape"></path>
                    <path d="M10.7980469,59.085 L9.59492187,59.085 L9.59492187,58.305 C9.59492187,56.355 11.1890625,54.765 13.1441406,54.765 L13.9261719,54.765 L13.9261719,55.965 L13.1441406,55.965 C11.8507812,55.965 10.7679687,57.015 10.7679687,58.335 L10.7679687,59.085 L10.7980469,59.085 Z" id="Shape"></path>
                    <path d="M2.82734375,5.415 C1.35351562,5.415 0.18046875,4.215 0.18046875,2.775 C0.18046875,1.305 1.38359375,0.135 2.82734375,0.135 C4.30117187,0.135 5.47421875,1.335 5.47421875,2.775 C5.47421875,4.215 4.27109375,5.415 2.82734375,5.415 Z M2.82734375,1.275 C2.01523437,1.275 1.35351562,1.935 1.35351562,2.745 C1.35351562,3.555 2.01523437,4.215 2.82734375,4.215 C3.63945312,4.215 4.30117187,3.555 4.30117187,2.745 C4.27109375,1.935 3.63945313,1.275 2.82734375,1.275 Z" id="Shape"></path>
                </g>
                <path d="M82.0832031,126.645 C80.0078125,126.645 78.3234375,124.965 78.3234375,122.895 C78.3234375,120.825 80.0078125,119.145 82.0832031,119.145 C84.1585937,119.145 85.8429687,120.825 85.8429687,122.895 C85.8429687,124.965 84.1585938,126.615 82.0832031,126.645 Z M82.0832031,120.315 C80.6695313,120.315 79.5265625,121.455 79.5265625,122.865 C79.5265625,124.275 80.6695313,125.415 82.0832031,125.415 C83.496875,125.415 84.6398437,124.275 84.6398437,122.865 C84.6699219,121.455 83.496875,120.315 82.0832031,120.315 Z" id="Shape" fill="#75B0F4"></path>
                <g id="Group" transform="translate(6.316406, 6.300000)" fill="#FF60A1">
                    <path d="M21.2351562,86.685 C19.7613281,86.685 18.5882813,85.485 18.5882813,84.045 C18.5882813,82.575 19.7914063,81.405 21.2351562,81.405 C22.7089844,81.405 23.8820312,82.575 23.8820312,84.045 C23.8820313,85.485 22.7089844,86.655 21.2351562,86.685 Z M21.2351562,82.545 C20.4230469,82.545 19.7613281,83.205 19.7613281,84.015 C19.7613281,84.825 20.4230469,85.485 21.2351562,85.485 C22.0472656,85.485 22.7089844,84.825 22.7089844,84.015 C22.6789063,83.205 22.0472656,82.545 21.2351562,82.545 Z" id="Shape"></path>
                    <path d="M68.1871094,5.475 C66.7132813,5.475 65.5402344,4.275 65.5402344,2.835 C65.5402344,1.365 66.7433594,0.195 68.1871094,0.195 C69.6609375,0.195 70.8339844,1.395 70.8339844,2.835 C70.8640625,4.275 69.6609375,5.445 68.1871094,5.475 Z M68.1871094,1.335 C67.375,1.335 66.7132813,1.995 66.7132813,2.805 C66.7132813,3.615 67.375,4.275 68.1871094,4.275 C68.9992188,4.275 69.6609375,3.615 69.6609375,2.805 C69.6609375,1.995 68.9992188,1.335 68.1871094,1.335 Z" id="Shape"></path>
                    <path d="M14.2570313,56.235 C13.5050781,56.235 12.753125,55.905 12.271875,55.305 C11.7605469,54.735 10.8582031,54.675 10.2867188,55.185 C10.2566406,55.215 10.1964844,55.275 10.1664062,55.305 C9.23398438,56.385 7.5796875,56.505 6.46679688,55.575 C6.3765625,55.485 6.28632812,55.395 6.19609375,55.305 C5.68476562,54.735 4.78242187,54.675 4.2109375,55.185 C4.18085937,55.215 4.12070313,55.275 4.090625,55.305 C3.128125,56.385 1.47382813,56.505 0.391015625,55.545 C0.30078125,55.455 0.210546875,55.395 0.150390625,55.305 L1.0828125,54.555 C1.59414063,55.125 2.49648438,55.185 3.06796875,54.675 C3.09804688,54.645 3.15820313,54.585 3.18828125,54.555 C4.12070313,53.475 5.775,53.355 6.88789063,54.285 C6.978125,54.375 7.06835938,54.465 7.15859375,54.555 C7.66992188,55.125 8.57226563,55.185 9.14375,54.645 C9.17382813,54.615 9.20390625,54.585 9.23398438,54.555 C10.1664062,53.475 11.8207031,53.355 12.9335938,54.285 C13.0238281,54.375 13.1140625,54.465 13.2042969,54.555 C13.715625,55.125 14.6179688,55.185 15.1894531,54.675 C15.2195312,54.645 15.2796875,54.585 15.3097656,54.555 L16.2421875,55.305 C15.7609375,55.875 15.0390625,56.205 14.2570313,56.235 Z" id="Shape"></path>
                </g>
                <path d="M99.8292969,136.425 C99.0773437,136.425 98.3253906,136.095 97.8441406,135.495 C97.3328125,134.925 96.4304687,134.865 95.8589844,135.375 C95.8289062,135.405 95.76875,135.465 95.7386719,135.495 C94.7761719,136.575 93.121875,136.695 92.0089844,135.735 C91.91875,135.675 91.8585937,135.585 91.7683594,135.495 C91.2570312,134.925 90.3546875,134.865 89.7832031,135.375 C89.753125,135.405 89.6929687,135.465 89.6628906,135.495 C88.7003906,136.575 87.0460937,136.695 85.9332031,135.735 C85.8429687,135.675 85.7828125,135.585 85.6925781,135.495 L86.625,134.745 C87.1363281,135.315 88.0085938,135.375 88.6101563,134.865 C88.6703125,134.835 88.7003906,134.775 88.7304688,134.745 C89.6929687,133.665 91.3472656,133.545 92.4601562,134.505 C92.5503906,134.565 92.6105469,134.655 92.7007812,134.745 C93.2121094,135.315 94.084375,135.375 94.6859375,134.865 C94.7460938,134.835 94.7761719,134.775 94.80625,134.745 C95.76875,133.665 97.4230469,133.545 98.5359375,134.505 C98.6261719,134.565 98.6863281,134.655 98.7765625,134.745 C99.2878906,135.315 100.160156,135.375 100.761719,134.865 C100.821875,134.835 100.851953,134.775 100.882031,134.745 L101.814453,135.495 C101.333203,136.065 100.611328,136.425 99.8292969,136.425 Z" id="Shape" fill="#FF60A1"></path>
                <g id="Group" transform="translate(34.289062, 23.700000)" fill="#75B0F4">
                    <path d="M4.090625,23.205 C3.609375,23.205 3.09804687,23.115 2.646875,22.935 L3.09804687,21.825 C3.39882812,21.945 3.75976563,22.005 4.090625,22.005 L4.090625,23.205 Z M5.534375,22.935 L5.08320313,21.825 C5.4140625,21.705 5.68476563,21.495 5.92539063,21.255 L6.76757813,22.095 C6.40664063,22.455 6.015625,22.725 5.534375,22.935 Z M1.41367188,22.125 C1.05273438,21.765 0.78203125,21.345 0.571484375,20.895 L1.684375,20.445 C1.8046875,20.775 2.01523438,21.045 2.25585938,21.285 L1.41367188,22.125 Z M7.5796875,20.865 L6.46679688,20.415 C6.58710938,20.085 6.67734375,19.755 6.67734375,19.425 L7.88046875,19.395 L7.88046875,19.425 C7.88046875,19.935 7.79023438,20.415 7.5796875,20.865 Z M0.3609375,19.455 L0.270703125,19.455 C0.270703125,18.945 0.3609375,18.465 0.54140625,18.015 L1.65429688,18.465 C1.53398438,18.765 1.47382813,19.095 1.47382813,19.455 L0.3609375,19.455 Z M6.46679688,18.405 C6.31640625,18.075 6.1359375,17.805 5.8953125,17.565 L6.7375,16.725 C7.0984375,17.085 7.36914063,17.475 7.5796875,17.955 L6.46679688,18.405 Z M2.19570312,17.595 L1.35351563,16.755 C1.71445313,16.395 2.10546875,16.125 2.58671875,15.915 L3.03789062,16.995 C2.73710937,17.145 2.46640625,17.355 2.19570312,17.595 Z M5.053125,16.995 C4.75234375,16.875 4.42148438,16.815 4.090625,16.815 L4.06054688,15.615 L4.090625,15.615 C4.571875,15.615 5.053125,15.705 5.50429688,15.885 L5.053125,16.995 Z" id="Shape"></path>
                    <path d="M93.5730469,113.325 C93.0917969,113.325 92.5804688,113.235 92.1292969,113.055 L92.5804688,111.945 C92.88125,112.065 93.2421875,112.125 93.5730469,112.125 L93.5730469,113.325 Z M95.0167969,113.055 L94.565625,111.945 C94.8964844,111.825 95.1671875,111.615 95.4078125,111.375 L96.25,112.215 C95.8890625,112.575 95.4679688,112.845 95.0167969,113.055 Z M90.8660156,112.245 C90.5050781,111.885 90.234375,111.465 90.0238281,111.015 L91.1367188,110.565 C91.2570313,110.895 91.4675781,111.165 91.7082031,111.405 L90.8660156,112.245 Z M97.0621094,110.985 L95.9492188,110.535 C96.0695313,110.205 96.1597656,109.875 96.1597656,109.545 L97.1222656,109.515 L97.3628906,109.515 C97.3628906,110.025 97.2425781,110.535 97.0621094,110.985 Z M89.753125,109.575 C89.753125,109.065 89.8433594,108.585 90.0238281,108.135 L91.1367188,108.585 C91.0164063,108.885 90.95625,109.215 90.95625,109.575 L89.753125,109.575 Z M95.9492188,108.525 C95.8289063,108.195 95.6183594,107.925 95.3777344,107.685 L96.2199219,106.845 C96.5808594,107.205 96.8515625,107.595 97.0621094,108.075 L95.9492188,108.525 Z M91.678125,107.715 L90.8359375,106.875 C91.196875,106.515 91.5878906,106.245 92.0691406,106.035 L92.5503906,107.115 C92.2195313,107.265 91.91875,107.475 91.678125,107.715 Z M94.5355469,107.115 C94.2347656,106.995 93.9039063,106.935 93.5429688,106.935 L93.5128906,105.735 L93.5429688,105.735 C94.0242188,105.735 94.5054688,105.825 94.9566406,106.005 L94.5355469,107.115 Z" id="Shape"></path>
                    <path d="M93.5730469,7.755 C93.0917969,7.755 92.5804688,7.665 92.1292969,7.485 L92.5804688,6.375 C92.88125,6.495 93.2421875,6.555 93.5730469,6.555 L93.5730469,7.755 Z M95.0167969,7.455 L94.565625,6.345 C94.8964844,6.225 95.1671875,6.015 95.4078125,5.775 L96.25,6.615 C95.8890625,6.975 95.4679688,7.275 95.0167969,7.455 Z M90.8660156,6.645 C90.5050781,6.285 90.234375,5.865 90.0238281,5.415 L91.1066406,4.965 C91.2269531,5.295 91.4375,5.565 91.678125,5.805 L90.8660156,6.645 Z M97.0621094,5.385 L95.9492188,4.935 C96.0695313,4.605 96.1597656,4.275 96.1597656,3.945 L97.3628906,3.915 L97.3628906,3.945 C97.3628906,4.455 97.2425781,4.935 97.0621094,5.385 Z M89.753125,3.975 C89.753125,3.465 89.8433594,2.985 90.0238281,2.535 L91.1367188,2.985 C91.0164063,3.285 90.95625,3.645 90.95625,3.975 L89.753125,3.975 Z M95.9492188,2.925 C95.8289063,2.595 95.6183594,2.325 95.3777344,2.085 L96.2199219,1.245 C96.5808594,1.605 96.8515625,1.995 97.0621094,2.475 L95.9492188,2.925 Z M91.678125,2.115 L90.8359375,1.275 C91.196875,0.915 91.5878906,0.645 92.0691406,0.435 L92.5503906,1.515 C92.2195313,1.695 91.91875,1.875 91.678125,2.115 Z M94.5355469,1.545 C94.2347656,1.425 93.9039063,1.365 93.5429688,1.365 L93.5128906,0.165 L93.5429688,0.165 C94.0242188,0.165 94.5054688,0.255 94.9566406,0.435 L94.5355469,1.545 Z" id="Shape"></path>
                </g>
                <path d="M8.81289063,146.205 C8.33164063,146.205 7.8203125,146.115 7.36914063,145.935 L7.8203125,144.825 C8.12109375,144.945 8.48203125,145.005 8.81289063,145.005 L8.81289063,146.205 Z M10.2566406,145.935 L9.80546875,144.825 C10.1363281,144.705 10.4070312,144.495 10.6476562,144.255 L11.4898437,145.095 C11.1589844,145.455 10.7378906,145.725 10.2566406,145.935 Z M6.1359375,145.125 C5.775,144.765 5.50429687,144.375 5.29375,143.895 L6.40664062,143.445 C6.52695312,143.775 6.7375,144.045 6.978125,144.285 L6.1359375,145.125 Z M12.3320313,143.865 L11.2191406,143.415 C11.3394531,143.085 11.4296875,142.755 11.4296875,142.425 L12.6328125,142.395 L12.6328125,142.425 C12.6027344,142.905 12.5125,143.415 12.3320313,143.865 Z M5.11328125,142.425 L5.02304688,142.425 C5.02304688,141.915 5.11328125,141.435 5.29375,140.985 L6.40664062,141.435 C6.28632812,141.735 6.22617187,142.065 6.22617187,142.425 L5.11328125,142.425 Z M11.2191406,141.405 C11.06875,141.105 10.8882812,140.805 10.6476563,140.565 L11.4898438,139.725 C11.8507813,140.085 12.1214844,140.475 12.3320312,140.955 L11.2191406,141.405 Z M6.94804688,140.595 L6.10585938,139.755 C6.46679688,139.395 6.8578125,139.125 7.3390625,138.915 L7.79023438,139.995 C7.48945313,140.145 7.18867188,140.355 6.94804688,140.595 Z M9.80546875,139.995 C9.5046875,139.875 9.17382812,139.815 8.81289063,139.815 L8.7828125,138.615 L8.81289063,138.615 C9.29414063,138.615 9.77539062,138.705 10.2265625,138.885 L9.80546875,139.995 Z" id="Shape" fill="#FF60A1"></path>
                <g id="Group" transform="translate(9.023438, 15.000000)" fill="#75B0F4">
                    <rect id="Rectangle-path" x="2.40625" y="0.045" width="1.203125" height="5.61"></rect>
                    <rect id="Rectangle-path" x="0.18046875" y="2.265" width="5.62460938" height="1.2"></rect>
                </g>
                <path d="M110.567188,84.465 C110.567188,75.855 102.536328,68.595 91.6480469,66.435 C90.6554688,56.775 79.6167969,49.155 66.0816406,49.155 C51.9148438,49.155 40.425,57.525 40.425,67.845 C40.5152344,71.835 42.1394531,75.645 44.9667969,78.465 L40.425,86.535 L50.1703125,82.515 C53.0277344,84.135 56.0957031,85.275 59.3140625,85.875 C60.3066406,95.535 71.3753906,103.155 84.8804688,103.155 C90.4449219,103.215 95.9191406,101.835 100.791797,99.135 L110.537109,103.155 L106.025391,95.085 C108.852734,92.265 110.476953,88.455 110.567188,84.465 Z" id="Shape" fill="#DDDDDD"></path>
                <path d="M69.5105469,49.155 C55.34375,49.155 43.8539063,57.525 43.8539063,67.845 C43.9441406,71.835 45.5683594,75.645 48.3957031,78.465 L43.8539063,86.535 L53.5992188,82.515 C58.471875,85.215 63.9460938,86.595 69.5105469,86.535 C83.6773438,86.535 95.1671875,78.165 95.1671875,67.845 C95.1671875,57.525 83.6773438,49.155 69.5105469,49.155 Z" id="Shape" fill="#507FD1"></path>
                <g id="Group" transform="translate(56.546875, 65.100000)" fill="#FFFFFF">
                    <ellipse id="Oval" cx="2.79726563" cy="2.745" rx="2.67695313" ry="2.67"></ellipse>
                    <ellipse id="Oval" cx="12.9636719" cy="2.745" rx="2.67695313" ry="2.67"></ellipse>
                    <ellipse id="Oval" cx="23.1300781" cy="2.745" rx="2.67695313" ry="2.67"></ellipse>
                </g>
                <path d="M63.525,79.635 C62.9535156,81.165 62.6527344,82.785 62.6527344,84.465 C62.6527344,86.145 62.9535156,87.735 63.525,89.295 L63.525,79.635 Z" id="Shape" fill="#26DAB8"></path>
                <path d="M64.3972656,91.215 L64.3972656,77.715 C64.0664062,78.345 63.765625,78.975 63.525,79.635 L63.525,89.265 C63.765625,89.925 64.0664062,90.585 64.3972656,91.215 Z" id="Shape" fill="#26DAB8"></path>
                <path d="M65.2695312,92.655 L65.2695312,76.245 C64.9386719,76.725 64.6679688,77.205 64.3972656,77.685 L64.3972656,91.185 C64.6679688,91.695 64.9386719,92.175 65.2695312,92.655 Z" id="Shape" fill="#26DAB8"></path>
                <path d="M66.1417969,93.825 L66.1417969,75.075 C65.8410156,75.465 65.5402344,75.855 65.2695312,76.245 L65.2695312,92.655 C65.5402344,93.045 65.8410156,93.435 66.1417969,93.825 Z" id="Shape" fill="#26DAB8"></path>
                <path d="M66.9839844,94.845 L66.9839844,74.055 C66.6832031,74.385 66.3824219,74.715 66.1117188,75.075 L66.1117188,93.825 C66.4125,94.185 66.6832031,94.515 66.9839844,94.845 Z" id="Shape" fill="#26DAB8"></path>
                <path d="M67.85625,95.715 L67.85625,73.185 C67.5554688,73.485 67.2546875,73.755 66.9839844,74.055 L66.9839844,94.845 C67.2847656,95.145 67.5554688,95.445 67.85625,95.715 Z" id="Shape" fill="#26DAB8"></path>
                <path d="M68.7285156,96.525 L68.7285156,72.405 C68.4277344,72.675 68.1269531,72.915 67.85625,73.185 L67.85625,95.715 C68.1269531,95.985 68.4277344,96.255 68.7285156,96.525 Z" id="Shape" fill="#26DAB8"></path>
                <path d="M69.6007813,97.215 L69.6007813,71.685 C69.3,71.925 69.0292969,72.165 68.7285156,72.405 L68.7285156,96.525 C68.9992188,96.765 69.3,96.975 69.6007813,97.215 Z" id="Shape" fill="#26DAB8"></path>
                <path d="M70.4730469,97.875 L70.4730469,71.055 C70.1722656,71.265 69.9015625,71.475 69.6007813,71.685 L69.6007813,97.215 C69.8714844,97.425 70.1722656,97.665 70.4730469,97.875 Z" id="Shape" fill="#26DAB8"></path>
                <path d="M71.3152344,98.445 L71.3152344,70.455 C71.0144531,70.635 70.74375,70.845 70.4429687,71.055 L70.4429687,97.875 C70.74375,98.055 71.0144531,98.265 71.3152344,98.445 Z" id="Shape" fill="#26DAB8"></path>
                <path d="M72.1875,98.985 L72.1875,69.915 C71.8867188,70.095 71.6160156,70.275 71.3152344,70.455 L71.3152344,98.445 C71.6160156,98.625 71.8867188,98.805 72.1875,98.985 Z" id="Shape" fill="#26DAB8"></path>
                <path d="M72.1875,69.915 L72.1875,98.985 C72.4582031,99.165 72.7589844,99.315 73.0597656,99.465 L73.0597656,69.435 C72.7589844,69.585 72.4882812,69.765 72.1875,69.915 Z" id="Shape" fill="#26DAB8"></path>
                <path d="M73.0597656,69.435 L73.0597656,99.465 C73.3304688,99.615 73.63125,99.765 73.9320313,99.915 L73.9320313,68.985 C73.63125,69.135 73.3304688,69.285 73.0597656,69.435 Z" id="Shape" fill="#26DAB8"></path>
                <path d="M73.9320312,68.985 L73.9320312,99.915 C74.2027344,100.065 74.5035156,100.185 74.8042969,100.335 L74.8042969,68.565 C74.5035156,68.715 74.2027344,68.835 73.9320312,68.985 Z" id="Shape" fill="#26DAB8"></path>
                <path d="M74.7742188,68.565 L74.7742188,100.305 C75.0449219,100.425 75.3457031,100.545 75.6464844,100.665 L75.6464844,68.205 C75.3757813,68.325 75.075,68.445 74.7742188,68.565 Z" id="Shape" fill="#26DAB8"></path>
                <path d="M75.6464844,68.205 L75.6464844,100.695 C75.9171875,100.815 76.2179688,100.935 76.51875,101.025 L76.51875,67.845 C76.2179688,67.965 75.9472656,68.085 75.6464844,68.205 Z" id="Shape" fill="#26DAB8"></path>
                <path d="M76.51875,101.055 C76.8195312,101.175 77.0902344,101.265 77.3910156,101.355 L77.3910156,67.545 C77.0902344,67.635 76.8195312,67.755 76.51875,67.875 L76.51875,101.055 Z" id="Shape" fill="#26DAB8"></path>
                <path d="M77.3910156,67.545 L77.3910156,101.355 C77.6917969,101.445 77.9625,101.535 78.2632812,101.625 L78.2632812,67.245 C77.9625,67.365 77.6617187,67.455 77.3910156,67.545 Z" id="Shape" fill="#26DAB8"></path>
                <path d="M78.2632812,67.245 L78.2632812,101.625 C78.5339844,101.715 78.8347656,101.805 79.1355469,101.865 L79.1355469,67.005 C78.8347656,67.095 78.5339844,67.185 78.2632812,67.245 Z" id="Shape" fill="#26DAB8"></path>
                <path d="M79.1054688,67.005 L79.1054688,101.895 C79.40625,101.985 79.6769531,102.045 79.9777344,102.135 L79.9777344,66.765 C79.6769531,66.855 79.40625,66.915 79.1054688,67.005 Z" id="Shape" fill="#26DAB8"></path>
                <path d="M79.9777344,66.765 L79.9777344,102.105 C80.2785156,102.165 80.5492187,102.255 80.85,102.315 L80.85,66.585 C80.5492188,66.645 80.2785156,66.705 79.9777344,66.765 Z" id="Shape" fill="#26DAB8"></path>
                <path d="M80.85,66.585 L80.85,102.345 C81.1507813,102.405 81.4214844,102.465 81.7222656,102.525 L81.7222656,66.405 C81.4214844,66.435 81.1207031,66.495 80.85,66.585 Z" id="Shape" fill="#26DAB8"></path>
                <path d="M81.7222656,66.405 L81.7222656,102.525 C82.0230469,102.585 82.29375,102.645 82.5945312,102.675 L82.5945312,66.225 C82.29375,66.285 81.9929688,66.345 81.7222656,66.405 Z" id="Shape" fill="#26DAB8"></path>
                <path d="M82.5644531,66.225 L82.5644531,102.645 C82.8652344,102.705 83.1359375,102.735 83.4367187,102.765 L83.4367187,66.105 C83.1660156,66.135 82.8652344,66.195 82.5644531,66.225 Z" id="Shape" fill="#26DAB8"></path>
                <path d="M83.4367187,66.105 L83.4367187,102.795 C83.7375,102.825 84.0082031,102.885 84.3089844,102.915 L84.3089844,65.985 C84.0082031,66.015 83.7375,66.075 83.4367187,66.105 Z" id="Shape" fill="#26DAB8"></path>
                <path d="M84.3089844,65.985 L84.3089844,102.915 C84.6097656,102.945 84.8804688,102.975 85.18125,103.005 L85.18125,65.895 C84.8804688,65.925 84.5796875,65.955 84.3089844,65.985 Z" id="Shape" fill="#26DAB8"></path>
                <path d="M85.18125,65.895 L85.18125,102.975 C85.4820313,103.005 85.7527344,103.035 86.0535156,103.035 L86.0535156,65.835 C85.7527344,65.865 85.4519531,65.895 85.18125,65.895 Z" id="Shape" fill="#26DAB8"></path>
                <path d="M86.0234375,65.835 L86.0234375,103.065 C86.3242188,103.095 86.5949219,103.095 86.8957031,103.125 L86.8957031,65.805 C86.625,65.805 86.3242188,65.805 86.0234375,65.835 Z" id="Shape" fill="#26DAB8"></path>
                <path d="M86.8957031,65.805 L86.8957031,103.125 C87.1964844,103.125 87.4671875,103.155 87.7679687,103.155 L87.7679687,65.775 C87.4671875,65.775 87.1964844,65.775 86.8957031,65.805 Z" id="Shape" fill="#26DAB8"></path>
                <path d="M87.7679688,103.125 C87.9484375,103.125 88.1289062,103.125 88.3394531,103.125 C88.4296875,103.125 88.55,103.125 88.6402344,103.125 L88.6402344,65.775 C88.55,65.775 88.4296875,65.775 88.3394531,65.775 C88.1589844,65.775 87.9785156,65.775 87.7679688,65.775 L87.7679688,103.125 Z" id="Shape" fill="#26DAB8"></path>
                <path d="M89.5125,103.125 L89.5125,65.775 C89.2117187,65.775 88.9410156,65.775 88.6402344,65.745 L88.6402344,103.125 C88.9109375,103.155 89.2117187,103.155 89.5125,103.125 Z" id="Shape" fill="#26DAB8"></path>
                <path d="M90.3546875,103.095 L90.3546875,65.835 C90.0539062,65.805 89.7832031,65.805 89.4824219,65.805 L89.4824219,103.155 C89.7832031,103.125 90.0839844,103.125 90.3546875,103.095 Z" id="Shape" fill="#26DAB8"></path>
                <path d="M90.3546875,65.835 L90.3546875,103.125 C90.6554687,103.095 90.9261719,103.095 91.2269531,103.065 L91.2269531,65.895 C90.95625,65.865 90.6554687,65.835 90.3546875,65.835 Z" id="Shape" fill="#26DAB8"></path>
                <path d="M91.2269531,65.895 L91.2269531,103.065 C91.5277344,103.035 91.7984375,103.005 92.0992187,102.975 L92.0992187,65.955 C91.7984375,65.925 91.5277344,65.895 91.2269531,65.895 Z" id="Shape" fill="#26DAB8"></path>
                <path d="M92.0992188,65.955 L92.0992188,102.945 C92.4,102.915 92.6707031,102.885 92.9714844,102.855 L92.9714844,66.075 C92.6707031,66.045 92.4,65.985 92.0992188,65.955 Z" id="Shape" fill="#26DAB8"></path>
                <path d="M92.9714844,66.075 L92.9714844,102.855 C93.2722656,102.825 93.5429688,102.765 93.84375,102.735 L93.84375,66.195 C93.5429688,66.135 93.2421875,66.105 92.9714844,66.075 Z" id="Shape" fill="#26DAB8"></path>
                <path d="M93.84375,66.195 L93.84375,102.735 C94.1445312,102.675 94.4152344,102.645 94.7160156,102.585 L94.7160156,66.345 C94.4152344,66.285 94.1144531,66.255 93.84375,66.195 Z" id="Shape" fill="#26DAB8"></path>
                <path d="M94.6859375,66.345 L94.6859375,102.585 C94.9867188,102.525 95.2574219,102.465 95.5582031,102.405 L95.5582031,66.525 C95.2875,66.465 94.9867188,66.405 94.6859375,66.345 Z" id="Shape" fill="#26DAB8"></path>
                <path d="M95.5582031,66.525 L95.5582031,102.405 C95.8589844,102.345 96.1296875,102.285 96.4304687,102.195 L96.4304687,66.705 C96.1296875,66.645 95.8589844,66.585 95.5582031,66.525 Z" id="Shape" fill="#26DAB8"></path>
                <path d="M96.4304688,66.705 L96.4304688,102.195 C96.73125,102.135 97.0019531,102.045 97.3027344,101.955 L97.3027344,66.945 C97.0019531,66.855 96.7011719,66.795 96.4304688,66.705 Z" id="Shape" fill="#26DAB8"></path>
                <path d="M97.3027344,66.945 L97.3027344,101.985 C97.6035156,101.895 97.8742187,101.805 98.175,101.715 L98.175,67.185 C97.8742187,67.095 97.5734375,67.005 97.3027344,66.945 Z" id="Shape" fill="#26DAB8"></path>
                <path d="M98.1449219,67.185 L98.1449219,101.715 C98.4457031,101.625 98.7164062,101.535 99.0171875,101.445 L99.0171875,67.455 C98.7464844,67.365 98.4457031,67.275 98.1449219,67.185 Z" id="Shape" fill="#26DAB8"></path>
                <path d="M99.0171875,67.455 L99.0171875,101.415 C99.3179687,101.325 99.5886719,101.205 99.8894531,101.115 L99.8894531,67.755 C99.5886719,67.665 99.3179687,67.545 99.0171875,67.455 Z" id="Shape" fill="#26DAB8"></path>
                <path d="M99.8894531,67.755 L99.8894531,101.115 C100.190234,100.995 100.460938,100.905 100.761719,100.785 L100.761719,68.085 C100.460938,67.995 100.190234,67.875 99.8894531,67.755 Z" id="Shape" fill="#26DAB8"></path>
                <path d="M100.761719,68.085 L100.761719,100.785 C101.0625,100.665 101.333203,100.545 101.633984,100.425 L101.633984,68.445 C101.333203,68.325 101.032422,68.205 100.761719,68.085 Z" id="Shape" fill="#26DAB8"></path>
                <path d="M101.603906,68.445 L101.603906,100.395 C101.904688,100.275 102.175391,100.125 102.476172,100.005 L102.476172,68.865 C102.205469,68.715 101.904688,68.595 101.603906,68.445 Z" id="Shape" fill="#26DAB8"></path>
                <path d="M102.476172,68.865 L102.476172,100.035 C102.776953,99.885 103.047656,99.765 103.348437,99.615 L103.348437,69.285 C103.077734,69.135 102.776953,69.015 102.476172,68.865 Z" id="Shape" fill="#26DAB8"></path>
                <path d="M103.348438,69.285 L103.348438,99.585 C103.649219,99.435 103.919922,99.285 104.220703,99.135 L104.220703,69.795 C103.919922,69.615 103.649219,69.465 103.348438,69.285 Z" id="Shape" fill="#26DAB8"></path>
                <path d="M104.220703,69.765 L104.220703,99.105 L104.250781,99.105 L105.092969,99.465 L105.092969,70.305 C104.792187,70.125 104.521484,69.945 104.220703,69.765 Z" id="Shape" fill="#26DAB8"></path>
                <path d="M105.092969,70.305 L105.092969,99.465 L105.965234,99.825 L105.965234,70.875 C105.664453,70.665 105.363672,70.485 105.092969,70.305 Z" id="Shape" fill="#26DAB8"></path>
                <path d="M105.935156,70.875 L105.935156,99.825 L106.807422,100.185 L106.807422,71.505 C106.536719,71.265 106.235938,71.055 105.935156,70.875 Z" id="Shape" fill="#26DAB8"></path>
                <path d="M106.807422,100.185 L107.679688,100.545 L107.679688,72.195 C107.408984,71.955 107.108203,71.745 106.807422,71.505 L106.807422,100.185 Z" id="Shape" fill="#26DAB8"></path>
                <path d="M107.679688,72.195 L107.679688,100.545 L108.551953,100.905 L108.551953,72.945 C108.251172,72.675 107.980469,72.435 107.679688,72.195 Z" id="Shape" fill="#26DAB8"></path>
                <path d="M108.551953,72.945 L108.551953,100.905 L109.424219,101.265 L109.424219,73.785 C109.123438,73.515 108.852734,73.215 108.551953,72.945 Z" id="Shape" fill="#26DAB8"></path>
                <path d="M110.266406,74.745 C109.995703,74.415 109.694922,74.085 109.394141,73.785 L109.394141,101.235 L110.266406,101.595 L110.266406,96.555 L109.424219,95.085 C109.725,94.785 109.995703,94.485 110.266406,94.185 L110.266406,74.745 Z" id="Shape" fill="#26DAB8"></path>
                <g id="Group" transform="translate(110.085938, 74.700000)" fill="#26DAB8">
                    <polygon id="Shape" points="1.05273438 27.255 1.05273438 23.385 0.18046875 21.855 0.18046875 26.895"></polygon>
                    <path d="M1.05273438,18.375 L1.05273438,1.185 C0.78203125,0.795 0.48125,0.405 0.18046875,0.045 L0.18046875,19.485 C0.48125,19.125 0.78203125,18.765 1.05273438,18.375 Z" id="Shape"></path>
                </g>
                <g id="Group" transform="translate(110.988281, 75.600000)" fill="#26DAB8">
                    <path d="M1.02265625,16.125 L1.02265625,1.635 C0.751953125,1.185 0.48125,0.735 0.150390625,0.285 L0.150390625,17.475 C0.451171875,17.025 0.751953125,16.575 1.02265625,16.125 Z" id="Shape"></path>
                    <polygon id="Shape" points="1.02265625 26.715 1.02265625 24.015 0.150390625 22.485 0.150390625 26.355"></polygon>
                </g>
                <g id="Group" transform="translate(111.890625, 77.100000)" fill="#26DAB8">
                    <path d="M0.992578125,12.825 L0.992578125,1.875 C0.751953125,1.275 0.451171875,0.705 0.1203125,0.135 L0.1203125,14.625 C0.451171875,14.025 0.721875,13.425 0.992578125,12.825 Z" id="Shape"></path>
                    <polygon id="Shape" points="0.992578125 25.575 0.992578125 24.045 0.1203125 22.515 0.1203125 25.215"></polygon>
                </g>
                <g id="Group" transform="translate(112.792969, 78.900000)" fill="#26DAB8">
                    <polygon id="Shape" points="1.203125 24.255 0.090234375 22.245 0.090234375 23.775"></polygon>
                    <path d="M1.203125,5.565 C1.203125,3.645 0.812109375,1.815 0.090234375,0.075 L0.090234375,11.025 C0.78203125,9.285 1.17304687,7.455 1.203125,5.565 Z" id="Shape"></path>
                </g>
                <g id="Group" transform="translate(75.496094, 81.600000)" fill="#FFFFFF">
                    <ellipse id="Oval" cx="2.67695312" cy="2.865" rx="2.67695313" ry="2.67"></ellipse>
                    <ellipse id="Oval" cx="12.8433594" cy="2.865" rx="2.67695312" ry="2.67"></ellipse>
                    <ellipse id="Oval" cx="22.9796875" cy="2.865" rx="2.67695313" ry="2.67"></ellipse>
                </g>
            </g>
        </g>
    </g>
</svg>