<?xml version="1.0" encoding="UTF-8"?>
<svg width="154px" height="153px" viewBox="0 0 154 153" version="1.1" xmlns="http://www.w3.org/2000/svg" xmlns:xlink="http://www.w3.org/1999/xlink">
    <!-- Generator: Sketch 49.3 (51167) - http://www.bohemiancoding.com/sketch -->
    <title>shipping-box</title>
    <desc>Created with Sketch.</desc>
    <defs></defs>
    <g id="Page-1" stroke="none" stroke-width="1" fill="none" fill-rule="evenodd">
        <g id="Desktop-Copy-46" transform="translate(-786.000000, -759.000000)" fill-rule="nonzero">
            <g id="shipping-box" transform="translate(786.000000, 759.000000)">
                <path d="M76.5765,149.0652 C36.2098516,149.0679 3.48515234,116.4282 3.48244531,76.1661 C3.47973828,35.9043 36.2044375,3.2646 76.5710859,3.2619 C116.937734,3.2592 149.662734,35.8992 149.665441,76.161 L149.665441,76.1637 C149.620926,116.4072 116.924801,149.0184 76.5765,149.0652 Z" id="Shape" fill="#F6F7F8"></path>
                <g id="Group">
                    <ellipse id="Oval" fill="#E5E9EE" cx="76.5765" cy="76.1637" rx="55.2426875" ry="55.0992"></ellipse>
                    <path d="M0.768496094,4.5267 L0,4.5267 L0,3.3402 L0.768496094,3.3402 C2.07569141,3.3402 3.13714844,2.2815 3.13714844,0.9777 L3.13714844,0.2112 L4.31891797,0.2112 L4.31891797,0.9777 C4.31651172,2.9334 2.72958984,4.5216 0.768496094,4.5267 Z" id="Shape" fill="#EEEEEE"></path>
                    <path d="M7.45636719,4.5267 L6.69539062,4.5267 C4.73189063,4.524 3.13985547,2.9361 3.13714844,0.9777 L3.13714844,0.2112 L4.31891797,0.2112 L4.31891797,0.9777 C4.321625,2.2815 5.380375,3.3375 6.68757031,3.3402 L7.45606641,3.3402 L7.45606641,4.5267 L7.45636719,4.5267 Z" id="Shape" fill="#EEEEEE"></path>
                    <path d="M4.31891797,7.6584 L3.13714844,7.6584 L3.13714844,6.8892 C3.13444141,5.5854 2.07569141,4.5294 0.768496094,4.5267 L0,4.5267 L0,3.3402 L0.768496094,3.3402 C2.72928906,3.348 4.31621094,4.9335 4.31891797,6.8892 C4.31891797,6.8892 4.31891797,7.6584 4.31891797,7.6584 Z" id="Shape" fill="#EEEEEE"></path>
                    <path d="M4.31891797,7.6584 L3.13714844,7.6584 L3.13714844,6.8892 C3.13985547,4.9308 4.73189063,3.3429 6.69539062,3.3402 L7.45606641,3.3402 L7.45606641,4.5267 L6.69539063,4.5267 C5.38819531,4.5294 4.32944531,5.5854 4.32673828,6.8892 L4.31891797,7.6584 Z" id="Shape" fill="#EEEEEE"></path>
                </g>
                <g id="Group" transform="translate(29.476562, 127.500000)" fill="#75B0F4">
                    <path d="M123.922176,22.1571 L123.15368,22.1571 C121.19018,22.1544 119.598145,20.5665 119.595438,18.6081 L119.595438,17.8416 L120.785027,17.8416 L120.785027,18.6081 C120.785027,19.9119 121.846484,20.9706 123.15368,20.9706 L123.922176,20.9706 L123.922176,22.1571 Z" id="Shape"></path>
                    <path d="M120.784727,25.2888 L119.595137,25.2888 L119.595137,24.5064 C119.597844,22.548 121.189879,20.9601 123.153379,20.9574 L123.921875,20.9574 L123.921875,22.1439 L123.153379,22.1439 C121.846184,22.1466 120.787434,23.2026 120.784727,24.5064 L120.784727,25.2888 Z" id="Shape"></path>
                    <path d="M117.226484,22.1571 L116.442047,22.1571 L116.442047,20.9706 L117.226484,20.9706 C118.53368,20.9679 119.59243,19.9119 119.595137,18.6081 L119.595137,17.8416 L120.784727,17.8416 L120.784727,18.6081 C120.78232,20.5665 119.189984,22.1544 117.226484,22.1571 Z" id="Shape"></path>
                    <path d="M120.784727,25.2888 L119.595137,25.2888 L119.595137,24.5064 C119.59243,23.2026 118.53368,22.1466 117.226484,22.1439 L116.442047,22.1439 L116.442047,20.9574 L117.226484,20.9574 C119.189984,20.9601 120.78202,22.548 120.784727,24.5064 L120.784727,25.2888 Z" id="Shape"></path>
                    <path d="M0.853316406,4.4931 L0.0848203125,4.4931 L0.0848203125,3.3066 L0.853316406,3.3066 C2.16321875,3.3066 3.22196875,2.2506 3.22467578,0.9441 L3.22467578,0.1776 L4.41426563,0.1776 L4.41426563,0.9441 C4.41155859,2.9049 2.81952344,4.4904 0.853316406,4.4931 Z" id="Shape"></path>
                    <path d="M7.55141406,4.4931 L6.78291797,4.4931 C4.81941797,4.4904 3.22738281,2.9025 3.22467578,0.9441 L3.22467578,0.1776 L4.41426562,0.1776 L4.41426562,0.9441 C4.41426562,2.2479 5.47572266,3.3066 6.78291797,3.3066 L7.55141406,3.3066 L7.55141406,4.4931 Z" id="Shape"></path>
                    <path d="M4.41426563,7.6248 L3.22467578,7.6248 L3.22467578,6.8556 C3.22196875,5.5518 2.16051172,4.4958 0.853316406,4.4931 L0.0848203125,4.4931 L0.0848203125,3.3066 L0.853316406,3.3066 C2.81922266,3.3093 4.41155859,4.8945 4.41426563,6.8556 C4.41426563,6.8556 4.41426563,7.6248 4.41426563,7.6248 Z" id="Shape"></path>
                    <path d="M4.41426562,7.6248 L3.22467578,7.6248 L3.22467578,6.8556 C3.22738281,4.8972 4.81941797,3.3093 6.78291797,3.3066 L7.55141406,3.3066 L7.55141406,4.4931 L6.78291797,4.4931 C5.47572266,4.4958 4.41697266,5.5518 4.41426562,6.8556 L4.41426562,7.6248 Z" id="Shape"></path>
                </g>
                <g id="Group" transform="translate(121.816406, 56.400000)" fill="#FF60A1">
                    <path d="M7.23168359,55.9809 L6.44724609,55.9809 L6.44724609,54.7944 L7.23168359,54.7944 C8.53887891,54.7944 9.60033594,53.7357 9.60033594,52.4319 L9.60033594,51.6654 L10.7899258,51.6654 L10.7899258,52.4319 C10.7872187,54.3903 9.19488281,55.9785 7.23168359,55.9809 Z" id="Shape"></path>
                    <path d="M13.9297812,55.9809 L13.1453437,55.9809 C11.1818437,55.9782 9.58980859,54.3903 9.58710156,52.4319 L9.58710156,51.6654 L10.7766914,51.6654 L10.7766914,52.4319 C10.7793984,53.7357 11.8381484,54.7917 13.1453437,54.7944 L13.9297812,54.7944 L13.9297812,55.9809 Z" id="Shape"></path>
                    <path d="M10.789625,59.1129 L9.60003516,59.1129 L9.60003516,58.3437 C9.59732812,57.0399 8.53857813,55.9839 7.23138281,55.9812 L6.44694531,55.9812 L6.44694531,54.7947 L7.23138281,54.7947 C9.19488281,54.7974 10.786918,56.3853 10.789625,58.3437 L10.789625,59.1129 Z" id="Shape"></path>
                    <path d="M10.789625,59.1129 L9.60003516,59.1129 L9.60003516,58.3437 C9.60274219,56.3853 11.1947773,54.7974 13.1582773,54.7947 L13.9427148,54.7947 L13.9427148,55.9812 L13.1582773,55.9812 C11.851082,55.9839 10.792332,57.0399 10.789625,58.3437 L10.789625,59.1129 Z" id="Shape"></path>
                    <path d="M2.81591406,5.4189 C1.34659766,5.4189 0.154300781,4.2297 0.154300781,2.7642 C0.154300781,1.2987 1.34659766,0.1095 2.81591406,0.1095 C4.28523047,0.1095 5.47752734,1.2987 5.47752734,2.7642 C5.47451953,4.23 4.28523047,5.4165 2.81591406,5.4189 Z M2.81591406,1.2963 C2.00290234,1.2936 1.34389063,1.9509 1.34148438,2.7618 C1.33877734,3.5727 1.99778906,4.23 2.81080078,4.2324 C3.6238125,4.2351 4.28282422,3.5778 4.28523047,2.7669 L4.28523047,2.7642 C4.27741016,1.9584 3.6238125,1.3119 2.81591406,1.3092 L2.81591406,1.2963 Z" id="Shape"></path>
                </g>
                <path d="M82.0877148,126.6474 C80.0117227,126.6474 78.32825,124.968 78.32825,122.8977 C78.32825,120.8274 80.0120234,119.148 82.0877148,119.148 C84.163707,119.148 85.8471797,120.8274 85.8471797,122.8977 L85.8471797,122.9004 C85.8420664,124.968 84.161,126.6447 82.0877148,126.6474 Z M82.0877148,120.3342 C80.6680273,120.3342 79.5178398,121.4817 79.5178398,122.8974 C79.5178398,124.3134 80.6683281,125.4606 82.0877148,125.4606 C83.5074023,125.4606 84.6575898,124.3131 84.6575898,122.8974 C84.6551836,121.4817 83.5074023,120.3369 82.0877148,120.3342 Z" id="Shape" fill="#75B0F4"></path>
                <g id="Group" transform="translate(6.316406, 6.300000)" fill="#FF60A1">
                    <path d="M21.2240273,86.6856 C19.7547109,86.6856 18.5624141,85.4964 18.5624141,84.0309 C18.5624141,82.5654 19.7547109,81.3762 21.2240273,81.3762 C22.6933438,81.3762 23.8856406,82.5654 23.8856406,84.0309 C23.8829336,85.4964 22.6933438,86.6829 21.2240273,86.6856 Z M21.2240273,82.5627 C20.4110156,82.5627 19.7520039,83.2197 19.7520039,84.0309 C19.7520039,84.8421 20.4107148,85.4991 21.2240273,85.4991 C22.0370391,85.4991 22.6960508,84.8421 22.6960508,84.0309 C22.6933438,83.22 22.0370391,82.5654 21.2240273,82.5627 Z" id="Shape"></path>
                    <path d="M68.1919219,5.4759 C66.7226055,5.4759 65.5303086,4.2867 65.5303086,2.8212 C65.5303086,1.3557 66.7226055,0.1665 68.1919219,0.1665 C69.6612383,0.1665 70.8535352,1.3557 70.8535352,2.8212 C70.8508281,4.287 69.6612383,5.4732 68.1919219,5.4759 Z M68.1919219,1.3533 C67.3789102,1.3533 66.7198984,2.0103 66.7198984,2.8215 C66.7198984,3.6327 67.3786094,4.2897 68.1919219,4.2897 C69.0049336,4.2897 69.6639453,3.6327 69.6639453,2.8215 C69.6690586,2.0106 69.0103477,1.3482 68.1973359,1.3431 C68.1946289,1.3431 68.1946289,1.3431 68.1922227,1.3431 L68.1919219,1.3533 Z" id="Shape"></path>
                    <path d="M14.2618438,56.2362 C13.4957539,56.2362 12.7690664,55.8921 12.2854102,55.3002 C11.7704727,54.7188 10.8813633,54.6639 10.3011562,55.1751 C10.2566406,55.2141 10.214832,55.2558 10.1757305,55.3002 C9.21623828,56.3901 7.5508125,56.4945 6.46078125,55.5375 C6.37716406,55.4619 6.29595312,55.3836 6.22286328,55.3002 C5.71033203,54.7188 4.82423047,54.6639 4.24101562,55.1751 C4.1965,55.2141 4.15469141,55.2558 4.11558984,55.3002 C3.15609766,56.3901 1.49067187,56.4945 0.400640625,55.5375 C0.317023438,55.4619 0.2358125,55.3836 0.162722656,55.3002 L1.08551953,54.5493 C1.59263672,55.1307 2.47633203,55.1883 3.05954688,54.6822 C3.10646875,54.6405 3.15098437,54.5961 3.19279297,54.5493 C4.15228516,53.4594 5.81229687,53.3523 6.90533594,54.3093 C6.99166016,54.3849 7.07257031,54.4659 7.14596094,54.5493 C7.65578516,55.1307 8.53948047,55.1907 9.12239453,54.6822 C9.16931641,54.6405 9.21383203,54.5961 9.25564062,54.5493 C10.2151328,53.4594 11.8805586,53.355 12.9705898,54.312 C13.054207,54.3849 13.1327109,54.4659 13.2085078,54.5493 C13.715625,55.1307 14.5993203,55.1883 15.1825352,54.6822 C15.229457,54.6405 15.2739727,54.5961 15.3157812,54.5493 L16.2385781,55.3002 C15.7546211,55.8918 15.0276328,56.2362 14.2618438,56.2362 Z" id="Shape"></path>
                </g>
                <path d="M99.8317031,136.4364 C99.0656133,136.4391 98.3389258,136.0947 97.8552695,135.5004 C97.3427383,134.919 96.4566367,134.8614 95.8734219,135.3726 C95.8289062,135.4116 95.7843906,135.456 95.7452891,135.5004 C94.7857969,136.5903 93.1203711,136.6947 92.0300391,135.7377 C91.9464219,135.6648 91.867918,135.5838 91.7921211,135.5004 C91.2822969,134.919 90.3958945,134.8614 89.8156875,135.3699 C89.7687656,135.4089 89.7266562,135.4533 89.6848477,135.5004 C88.7226484,136.5903 87.0572227,136.6947 85.9644844,135.735 C85.8808672,135.6621 85.8023633,135.5838 85.7292734,135.5004 L86.6520703,134.7495 C87.1646016,135.3309 88.0507031,135.3885 88.633918,134.8773 C88.6784336,134.8383 88.7229492,134.7939 88.7620508,134.7495 C89.721543,133.6596 91.3815547,133.5525 92.4745937,134.5095 C92.560918,134.5851 92.6418281,134.6661 92.7152187,134.7495 C93.225043,135.3309 94.1114453,135.3885 94.6916523,134.88 C94.7385742,134.841 94.7806836,134.7966 94.8224922,134.7495 C95.7819844,133.6596 97.4419961,133.5525 98.5350352,134.5095 C98.6213594,134.5851 98.7022695,134.6661 98.7756602,134.7495 C99.2881914,135.3309 100.174293,135.3885 100.757508,134.8773 C100.802023,134.8383 100.846539,134.7939 100.885641,134.7495 L101.808437,135.5004 C101.32448,136.0923 100.597793,136.4364 99.8317031,136.4364 Z" id="Shape" fill="#FF60A1"></path>
                <g id="Group" transform="translate(34.289062, 23.700000)" fill="#75B0F4">
                    <path d="M4.09603906,23.2191 L4.09603906,22.635 L4.20311719,23.2164 L4.09603906,23.2191 Z M4.09603906,23.2191 C3.59944922,23.2242 3.10526563,23.133 2.64507031,22.9452 L3.09744531,21.8499 C3.41116016,21.9777 3.74833594,22.0428 4.08821875,22.0428 L4.09603906,23.2191 Z M5.55212109,22.9374 L5.09192578,21.8421 C5.40834766,21.7092 5.6931875,21.5187 5.93651953,21.2763 L6.77840625,22.1133 C6.42558984,22.4652 6.00720313,22.7469 5.54430078,22.9374 L5.55212109,22.9374 Z M1.40314453,22.1316 C1.05032813,21.7797 0.767894531,21.3651 0.574492188,20.9061 L1.67264453,20.4471 C1.80348438,20.7627 1.99688672,21.0468 2.242625,21.2868 L1.40314453,22.1316 Z M7.594125,20.8851 L6.49356641,20.4315 C6.62440625,20.1159 6.69238281,19.7796 6.69238281,19.4379 L7.88197266,19.3989 L7.88197266,19.4379 C7.88167188,19.9335 7.78482031,20.4261 7.594125,20.8851 Z M0.357328125,19.4562 L0.278824219,19.4562 C0.276117188,18.9606 0.370261719,18.4704 0.558550781,18.0117 L1.65910938,18.4602 C1.53097656,18.7704 1.46570703,19.1043 1.46811328,19.4406 L0.357328125,19.4562 Z M6.47251172,18.4131 C6.33655859,18.1002 6.14315625,17.8161 5.89741797,17.5761 L6.72877734,16.7286 C7.08700781,17.0754 7.36944141,17.49 7.56525,17.9463 L6.47251172,18.4131 Z M2.20833594,17.6073 L1.36133594,16.7754 C1.71174609,16.4208 2.12742578,16.1391 2.58491406,15.9435 L3.05022266,17.0361 C2.73921484,17.1717 2.45678125,17.3646 2.21886328,17.6073 C2.21886328,17.6073 2.20833594,17.6073 2.20833594,17.6073 Z M5.04500391,17.0208 C4.73640234,16.8957 4.40433984,16.8303 4.06987109,16.8303 L4.04099609,15.6438 L4.06987109,15.6438 C4.55623438,15.6438 5.03989063,15.7377 5.49226562,15.9177 L5.04500391,17.0208 Z" id="Shape"></path>
                    <path d="M93.5589102,113.3544 C93.0647266,113.3544 92.57325,113.2578 92.1157617,113.0703 L92.5681367,111.9726 C92.8818516,112.1031 93.2190273,112.1682 93.5589102,112.1682 L93.5589102,113.3544 Z M95.0125859,113.0625 L94.5523906,111.9672 C94.8688125,111.8367 95.1590664,111.6438 95.3993906,111.4014 L96.2412773,112.2411 C95.8881602,112.593 95.4724805,112.872 95.0125859,113.0625 Z M90.8711289,112.2567 C90.5183125,111.9048 90.2358789,111.4902 90.0424766,111.0312 L91.1406289,110.5722 C91.273875,110.8878 91.4675781,111.1719 91.7106094,111.4119 L90.8711289,112.2567 Z M97.0621094,111.0129 L95.963957,110.5566 C96.0947969,110.241 96.1600664,109.9047 96.1600664,109.563 L97.3496562,109.5264 L97.3496562,109.563 C97.3496563,110.061 97.2531055,110.5539 97.0621094,111.0129 Z M89.7416953,109.5813 L89.7416953,109.563 C89.7416953,109.0728 89.8358398,108.5877 90.0214219,108.1341 L91.1219805,108.5799 C90.9965547,108.8928 90.9309844,109.2267 90.9309844,109.563 L89.7416953,109.5813 Z M95.9459102,108.5382 C95.8126641,108.2226 95.6165547,107.9385 95.3708164,107.6985 L96.2048828,106.851 C96.5604063,107.2005 96.8455469,107.6151 97.0413555,108.0714 L95.9459102,108.5382 Z M91.6844414,107.7297 L90.8374414,106.8978 C91.1851445,106.5432 91.6008242,106.2588 92.0610195,106.0659 L92.5263281,107.1585 C92.2126133,107.2941 91.9301797,107.4897 91.6898555,107.7321 L91.6844414,107.7297 Z M94.5211094,107.1432 C94.2101016,107.0181 93.8780391,106.9554 93.5432695,106.9554 L93.5171016,105.7689 L93.5432695,105.7689 C94.0296328,105.7689 94.5132891,105.8601 94.9656641,106.0428 L94.5211094,107.1432 Z" id="Shape"></path>
                    <path d="M93.5589102,7.7583 C93.0647266,7.7583 92.57325,7.6617 92.1157617,7.4742 L92.5681367,6.3765 C92.8818516,6.5043 93.2190273,6.5721 93.5589102,6.5721 L93.5589102,7.7583 Z M95.0125859,7.4664 L94.5523906,6.3711 C94.8688125,6.2382 95.1563594,6.0477 95.3993906,5.8053 L96.2412773,6.6423 C95.8881602,6.9942 95.4724805,7.2732 95.0125859,7.4664 Z M90.8738359,6.6579 C90.5183125,6.3084 90.2358789,5.8938 90.0451836,5.4348 L91.1406289,4.9758 C91.273875,5.2914 91.4675781,5.5755 91.7106094,5.8155 L90.8738359,6.6579 Z M97.0621094,5.4141 L95.963957,4.9605 C96.0947969,4.6449 96.1600664,4.3059 96.1600664,3.9645 L97.3496563,3.9279 L97.3496563,3.9645 C97.3496563,4.4622 97.2531055,4.9551 97.0621094,5.4141 Z M89.8358398,3.9825 L89.7468086,3.9825 C89.7441016,3.4872 89.8382461,2.9967 90.0265352,2.538 L91.1270938,2.9838 C91.001668,3.2967 90.9360977,3.6279 90.9360977,3.9642 L89.8358398,3.9825 Z M95.9510234,2.9394 C95.8177773,2.6238 95.621668,2.3397 95.3759297,2.1024 L96.2099961,1.2549 C96.5655195,1.6017 96.8506602,2.0163 97.0464688,2.4726 L95.9510234,2.9394 Z M91.6868477,2.1336 L90.8398477,1.3017 C91.1902578,0.9471 91.6059375,0.6654 92.0661328,0.4698 L92.5287344,1.5624 C92.2123125,1.698 91.9274727,1.8909 91.6868477,2.136 L91.6868477,2.1336 Z M94.5262227,1.5471 C94.2152148,1.422 93.8831523,1.3566 93.5483828,1.3566 L93.5195078,0.1701 L93.5483828,0.1701 C94.0347461,0.1701 94.5184023,0.264 94.9704766,0.444 L94.5262227,1.5471 Z" id="Shape"></path>
                </g>
                <path d="M10.8237187,126.2176 L10.8237187,125.6335 L10.9307969,126.2176 L10.8237187,126.2176 Z M10.8237187,126.2176 C10.3268281,126.2281 9.83294531,126.1393 9.37004297,125.9569 L9.82241797,124.8592 C10.1361328,124.987 10.4733086,125.0521 10.8131914,125.0521 L10.8237187,126.2176 Z M12.2773945,125.9362 L11.8199062,124.8409 C12.1363281,124.7104 12.423875,124.5175 12.6645,124.2751 L13.5063867,125.1148 C13.1508633,125.4667 12.7324766,125.7457 12.269875,125.9362 L12.2773945,125.9362 Z M8.13864453,125.1304 C7.78312109,124.7809 7.50339453,124.3639 7.30999219,123.9049 L8.41055078,123.4459 C8.54379687,123.7615 8.7375,124.0456 8.98053125,124.2856 L8.13864453,125.1304 Z M14.326918,123.8863 L13.2287656,123.43 C13.3596055,123.1144 13.424875,122.7781 13.424875,122.4364 L14.6144648,122.3974 L14.6144648,122.4364 C14.6144648,122.9344 14.5125,123.4273 14.3190977,123.8863 L14.326918,123.8863 Z M7.10335547,122.4574 L7.00409766,122.4574 C7.00139062,121.9621 7.09553516,121.4692 7.28382422,121.0102 L8.38438281,121.4587 C8.25895703,121.7689 8.19338672,122.1028 8.19338672,122.4391 L7.10335547,122.4574 Z M13.2185391,121.4143 C13.085293,121.0987 12.8891836,120.8146 12.6434453,120.5773 L13.4775117,119.7298 C13.8330352,120.0793 14.1181758,120.4939 14.3139844,120.9502 L13.2185391,121.4143 Z M8.95707031,120.6112 L8.11007031,119.7769 C8.46048047,119.4223 8.87616016,119.1406 9.33364844,118.945 L9.79895703,120.0376 C9.48012891,120.1705 9.189875,120.3637 8.94654297,120.6088 L8.95707031,120.6112 Z M11.7937383,120.022 C11.4827305,119.8969 11.150668,119.8342 10.8158984,119.8342 L10.7897305,118.6477 L10.8158984,118.6477 C11.3022617,118.6477 11.785918,118.7389 12.238293,118.9216 L11.7937383,120.022 Z" id="Shape" fill="#FF60A1"></path>
                <g id="Group" transform="translate(9.023438, 15.000000)" fill="#75B0F4">
                    <rect id="Rectangle-path" x="2.39361719" y="0.0615" width="1.18958984" height="5.6115"></rect>
                    <rect id="Rectangle-path" x="0.176859375" y="2.2728" width="5.62611328" height="1.1865"></rect>
                </g>
                <rect id="Rectangle-path" fill="#DDDDDD" x="41.9875586" y="52.0353" width="43.726375" height="43.6128"></rect>
                <rect id="Rectangle-path" fill="#2E58AE" x="67.295293" y="52.0353" width="43.726375" height="43.6128"></rect>
                <rect id="Rectangle-path" fill="#507FD1" x="45.4309023" y="52.0353" width="43.726375" height="43.6128"></rect>
                <rect id="Rectangle-path" fill="#FFFFFF" x="50.5107969" y="78.4767" width="16.7844961" height="10.8999"></rect>
                <rect id="Rectangle-path" fill="#26DAB8" x="62.0638047" y="52.0353" width="8.13342578" height="11.106"></rect>
                <rect id="Rectangle-path" fill="#26DAB8" x="97.4657578" y="52.0353" width="5.67844922" height="43.6128"></rect>
                <rect id="Rectangle-path" fill="#FFFFFF" x="72.1896055" y="78.7635" width="6.21173438" height="1.1865"></rect>
                <g id="Group" transform="translate(59.855469, 80.400000)" fill="#507FD1">
                    <rect id="Rectangle-path" x="0" y="0" width="6.31640625" height="1.2"></rect>
                    <rect id="Rectangle-path" x="0" y="3" width="6.31640625" height="1.2"></rect>
                </g>
                <g id="Group" transform="translate(72.187500, 78.600000)" fill="#FFFFFF">
                    <rect id="Rectangle-path" x="8.12771094" y="0.1635" width="3.10586719" height="1.1865"></rect>
                    <rect id="Rectangle-path" x="0.00210546875" y="3.3108" width="5.00921094" height="1.1865"></rect>
                    <rect id="Rectangle-path" x="0.00210546875" y="6.4635" width="4.21966016" height="1.1865"></rect>
                    <rect id="Rectangle-path" x="6.21383984" y="3.3108" width="5.01703125" height="1.1865"></rect>
                </g>
                <rect id="Rectangle-path" fill="#26DAB8" x="51.8360391" y="80.0256" width="6.99105859" height="7.8126"></rect>
            </g>
        </g>
    </g>
</svg>